<svg width="1223" height="10" viewBox="0 0 1223 10" fill="none" xmlns="http://www.w3.org/2000/svg">
<path d="M3 6.17318C21.4339 6.17318 21.4339 6.03911 39.8782 6.03911C58.3224 6.03911 58.3121 3.86034 76.7563 3.86034C95.2006 3.86034 95.1902 5.98324 113.634 5.98324C132.079 5.98324 132.079 3.84916 150.513 3.84916C168.947 3.84916 168.957 3.64804 187.391 3.64804C205.825 3.64804 205.825 3.42458 224.269 3.42458C242.713 3.42458 242.703 3.42458 261.147 3.42458C279.591 3.42458 279.581 7 298.025 7C316.47 7 316.459 6.74302 334.903 6.74302C353.348 6.74302 353.337 5.6257 371.771 5.6257C390.205 5.6257 390.205 5.77095 408.649 5.77095C427.094 5.77095 427.094 5.97207 445.528 5.97207C463.961 5.97207 463.961 5.17877 482.406 5.17877C500.85 5.17877 500.84 5.24581 519.284 5.24581C537.728 5.24581 537.718 6.13966 556.162 6.13966C574.606 6.13966 574.596 6.95531 593.04 6.95531C611.484 6.95531 611.474 3.71508 629.918 3.71508C648.363 3.71508 648.363 4.47486 666.796 4.47486C685.23 4.47486 685.23 6.94413 703.675 6.94413C722.119 6.94413 722.119 3 740.553 3C758.987 3 758.987 4.24022 777.431 4.24022C795.875 4.24022 795.875 6.92179 814.309 6.92179C832.743 6.92179 832.753 5.13408 851.187 5.13408C869.621 5.13408 869.632 3.89385 888.065 3.89385C906.499 3.89385 906.51 5.50279 924.944 5.50279C943.378 5.50279 943.378 3.22346 961.822 3.22346C980.266 3.22346 980.256 6.22905 998.7 6.22905C1017.14 6.22905 1017.14 3.1229 1035.58 3.1229C1054.01 3.1229 1054.02 4.05028 1072.46 4.05028C1090.89 4.05028 1090.9 4.05028 1109.34 4.05028C1127.79 4.05028 1127.79 4.8324 1146.22 4.8324C1164.66 4.8324 1164.67 3.70391 1183.11 3.70391C1201.56 3.70391 1201.56 4.74302 1220 4.74302" stroke="#97D1EB" stroke-width="5" stroke-miterlimit="10" stroke-linecap="round"/>
</svg>
