<svg width="132" height="62" viewBox="0 0 132 62" fill="none" xmlns="http://www.w3.org/2000/svg">
<g clip-path="url(#clip0_1_1299)">
<path d="M26.7146 30.5351C26.6278 29.9949 26.5791 29.419 26.5791 28.8034C26.5791 28.4683 26.6003 28.0328 26.6426 27.4883C26.6659 27.1805 26.6977 26.8371 26.7358 26.456C26.8416 25.4027 27.0767 24.0981 27.4345 22.5757C27.7753 21.1204 28.0908 19.866 28.3703 18.8483C28.383 18.7876 28.3957 18.7332 28.4084 18.6808C28.4105 18.6683 28.4147 18.6557 28.4189 18.6431C28.6645 17.772 28.9673 17.0642 29.3442 16.4821C29.3463 16.3188 29.3484 16.1554 29.3484 15.9963C29.3484 15.6214 29.342 15.2466 29.3315 14.8739C28.8572 14.3001 28.5015 13.6279 28.2771 12.8636C28.1374 12.4113 28.0654 11.9318 28.0654 11.4418C28.0654 10.7298 28.2199 9.9906 28.5227 9.24932C28.5269 9.23885 28.5312 9.23047 28.5354 9.22209C28.5544 9.17812 28.5756 9.13415 28.5968 9.09017C28.4041 8.36145 28.1755 7.67251 27.9066 7.02965C27.155 5.23088 26.0414 4.07288 24.5614 3.55565C23.8839 3.35672 23.2551 3.2583 22.6771 3.2583C21.9997 3.2583 21.392 3.39651 20.8585 3.67082C19.8676 4.18805 19.0758 4.96912 18.4809 6.01404C17.886 7.05896 17.4392 8.14995 17.1386 9.2891C16.838 10.4283 16.6432 11.4041 16.5543 12.2186L16.4039 13.4562L16.4209 12.9453C16.4315 12.5935 16.4378 12.3841 16.4378 12.3192C16.4378 11.737 16.3933 11.0439 16.3044 10.2398C16.2155 9.3603 16.0144 8.50803 15.7031 7.68298C15.3919 6.85794 14.9748 6.26114 14.4519 5.89259C13.9289 5.52404 13.3848 5.33977 12.8174 5.33977C12.4723 5.33977 12.1061 5.39002 11.7165 5.48844C9.90418 5.98263 8.44121 7.09665 7.32969 8.83051C6.21817 10.5623 5.53008 12.3631 5.26967 14.2331C5.00926 16.1031 4.87799 17.6652 4.87799 18.9195C4.87799 20.4482 5.00079 22.048 5.24426 23.7211C5.46657 25.2163 5.79685 26.3931 6.23722 27.2517C6.27957 27.3333 6.32191 27.4108 6.36425 27.4883C6.77075 28.2233 7.21959 28.7615 7.7129 29.0986C7.72984 29.1091 7.74466 29.1196 7.75948 29.13C8.75032 28.6798 9.92112 28.328 11.238 28.0893C11.6 28.0202 11.9811 27.9699 12.3707 27.9301L12.3326 27.6286C12.3262 27.5804 12.322 27.5323 12.3157 27.4862C12.2119 26.6402 12.1315 25.767 12.0743 24.8645C12.0129 23.9138 11.9833 23.1181 11.9833 22.4815C11.9833 21.9308 12.0002 21.3863 12.0341 20.8481C12.1124 19.6922 12.3347 18.8253 12.701 18.2411L12.6502 19.0494C12.6163 19.4786 12.5994 19.9833 12.5994 20.5675V21.0136C12.5994 21.7842 12.6544 22.5485 12.7666 23.3065C12.8767 24.0646 13.0757 24.676 13.3594 25.1388C13.6431 25.6016 14.0179 25.8319 14.4858 25.8319C14.5408 25.8319 14.5959 25.8256 14.653 25.8152C15.3538 25.7607 16.0228 25.6246 16.6622 25.411C17.3016 25.1974 17.8796 24.7284 18.3962 24.008C18.9128 23.2877 19.3447 22.1381 19.6898 20.5592C20.0349 18.9803 20.2614 16.8067 20.3737 14.0342L20.6404 14.9241C20.8183 15.5293 20.9262 16.145 20.9665 16.7732C21.0046 17.3993 21.0257 17.8181 21.0257 18.0275C21.0257 18.9405 20.903 19.9749 20.6595 21.1287C20.3694 22.5359 19.7808 24.0604 18.8916 25.7L18.5423 26.2277C18.3221 26.5586 18.0956 26.9816 17.8606 27.4883C17.8457 27.5197 17.8309 27.549 17.8161 27.5804C17.742 27.7438 17.6785 27.8987 17.6192 28.0474C17.5959 28.106 17.5769 28.1605 17.5557 28.217C17.4646 28.4683 17.3969 28.7028 17.3524 28.9164C17.3461 28.9478 17.3355 28.9834 17.3313 29.0149C17.2868 29.2599 17.2593 29.463 17.2423 29.6326C17.2318 29.7436 17.2233 29.8441 17.2233 29.9237C17.2233 30.2985 17.291 30.6545 17.4244 30.9958C17.6573 31.534 18.0257 32.114 18.5254 32.7359C19.025 33.3579 19.5712 33.8227 20.1598 34.1306C20.7484 34.4384 21.3052 34.5933 21.8282 34.5933C22.1288 34.5933 22.4337 34.5557 22.7449 34.4782C22.9609 34.4258 23.1789 34.3483 23.4012 34.2416C23.6087 34.1431 23.8204 34.0175 24.0321 33.8709C24.2248 33.7369 24.4217 33.5861 24.6207 33.4123C24.6673 33.3725 24.7139 33.3286 24.7626 33.2867C25.0209 33.0521 25.2813 32.7841 25.548 32.4826C25.963 31.98 26.3526 31.3309 26.7189 30.5351H26.7146Z" fill="#EAEAEA"/>
<path d="M42.3352 43.6898C42.3352 41.6691 42.6739 39.6337 43.3324 37.6381C42.9301 36.6308 42.477 35.7534 41.9689 35.0059C41.338 34.0761 40.6266 33.3432 39.8327 32.8176C39.2843 32.4574 38.7 32.1831 38.0818 31.9863C37.8235 31.9025 37.5588 31.8313 37.2878 31.7769C36.9766 31.7141 36.6548 31.6701 36.3266 31.6449C36.098 31.6261 35.8672 31.6156 35.6301 31.6156C34.9632 31.6156 34.2624 31.6868 33.5277 31.8292C32.63 32.0156 31.8001 32.315 31.0379 32.7213C30.6695 32.9181 30.3181 33.1401 29.9814 33.3872C29.7358 33.5694 29.4987 33.762 29.2701 33.9714C29.088 34.1368 28.9123 34.3106 28.7408 34.4928C28.1162 35.1608 27.5721 35.8958 27.1042 36.6937C26.8035 37.2067 26.5368 37.7469 26.3018 38.3144C26.1451 38.6893 26.0011 39.0725 25.872 39.4682C25.8593 39.508 25.8487 39.5478 25.836 39.5876C25.3152 41.2544 25.0547 42.959 25.0547 44.6991C25.0547 44.9211 25.0696 45.4551 25.1013 46.299C25.1077 46.4602 25.114 46.634 25.1204 46.8183C25.1352 47.1826 25.1924 47.5826 25.2855 48.0056C25.4867 48.9186 25.8635 49.9677 26.4288 51.1571C26.6299 51.5801 26.8544 51.9801 27.1021 52.3591C27.8727 53.538 28.8678 54.4992 30.0894 55.2405C31.4232 56.0655 33.0471 56.478 34.9611 56.478C35.3506 56.478 35.7444 56.4613 36.1446 56.4278C37.8341 56.2184 39.2759 55.5085 40.4657 54.3002C41.0268 53.7307 41.5264 53.0962 41.9689 52.401C42.4665 51.6199 42.8941 50.7613 43.2435 49.8211C43.2943 49.6829 43.3409 49.5447 43.3896 49.4065C42.7756 47.7627 42.4262 46.0581 42.3543 44.3243C42.3415 44.1149 42.3352 43.9013 42.3352 43.6919V43.6898ZM35.7444 47.0549C35.3654 47.8569 34.8827 48.2925 34.2941 48.3574C33.4706 48.3574 32.9624 48.0517 32.7676 47.4423C32.5729 46.8308 32.4755 46.2299 32.4755 45.6352C32.4755 45.4048 32.4861 45.1619 32.5094 44.9085C32.5983 44.029 32.7147 43.3527 32.8587 42.8794C33.0471 42.1968 33.2737 41.6083 33.5341 41.1141C33.7945 40.62 34.0824 40.3729 34.3936 40.3729C35.0055 40.4608 35.4289 40.8398 35.6618 41.512C35.8947 42.1821 36.062 43.0679 36.1615 44.1693C36.1827 44.3997 36.1954 44.6258 36.1954 44.8457C36.1954 45.6812 36.045 46.4183 35.7444 47.057V47.0549Z" fill="#EAEAEA"/>
<path d="M23.9644 35.5838C23.9644 35.5838 23.958 35.5859 23.9559 35.588C23.9495 35.5901 23.9432 35.5943 23.9368 35.5964C23.8564 35.632 23.7759 35.6655 23.6976 35.6969C23.6743 35.7053 23.6489 35.7158 23.6256 35.7241C23.56 35.7493 23.4944 35.7723 23.4287 35.7932C23.4033 35.8016 23.38 35.81 23.3546 35.8163C23.2678 35.8435 23.1789 35.8665 23.0921 35.8875C22.6686 35.9922 22.241 36.0445 21.826 36.0445C21.0638 36.0445 20.272 35.833 19.4738 35.4142C18.7074 35.0143 18.0024 34.4175 17.3757 33.6406C16.7956 32.9202 16.3573 32.2229 16.0736 31.5675C16.0673 31.5507 16.0609 31.5361 16.0546 31.5193C15.8556 31.0126 15.756 30.4744 15.756 29.9237C15.756 29.7729 15.7666 29.6012 15.7899 29.4002C15.7412 29.3939 15.6946 29.3876 15.646 29.3834C15.068 29.329 14.5111 29.3018 13.9776 29.3018C13.9607 29.3018 13.9459 29.3018 13.9289 29.3018C13.6622 29.3018 13.4017 29.3122 13.1477 29.3248C12.5718 29.3562 12.0235 29.4169 11.509 29.5153C10.4017 29.7164 9.43202 29.997 8.59362 30.353C8.51316 30.3865 8.43483 30.42 8.35649 30.4556C8.12572 30.5624 7.90553 30.6692 7.69381 30.776C7.09465 31.0817 6.58229 31.3916 6.15462 31.7099C5.57663 32.1392 5.14896 32.5077 4.86949 32.8155L4.43547 33.2783L4.18564 33.6238C4.0078 33.8667 3.83207 34.2227 3.66058 34.696C3.48697 35.1692 3.38535 35.6257 3.35147 36.0655C3.3176 36.5052 3.30066 36.8089 3.30066 36.9722C3.30066 37.5983 3.38323 38.2977 3.55049 39.0683C3.73892 39.8494 4.0205 40.4734 4.39313 40.9404C4.76575 41.4073 5.17648 41.7549 5.62744 41.979C6.0784 42.2052 6.49761 42.3497 6.88717 42.4167C7.27673 42.4837 7.60489 42.5151 7.87166 42.5151H7.97117L8.37131 42.4816C8.87097 43.6919 9.12291 45.0174 9.12291 46.4581C9.12291 46.6571 9.11656 46.8539 9.10597 47.0528C9.03822 48.726 8.87732 50.3363 8.62326 51.888C8.50046 52.713 8.4073 53.471 8.33955 54.1642C8.31627 54.3401 8.30568 54.5097 8.30568 54.6751C8.30568 56.0383 8.91755 56.9513 10.1413 57.4141C10.6303 57.6005 11.2147 57.6947 11.8922 57.6947C13.1159 57.6947 14.6509 57.4036 16.4971 56.8194C17.9431 56.3126 19.243 55.341 20.4011 53.8982C21.5571 52.4575 22.5289 50.8221 23.3123 48.9898C23.4753 48.6066 23.6256 48.2381 23.7654 47.8779C23.7061 47.5261 23.668 47.189 23.6553 46.8665C23.6087 45.6917 23.5875 44.9818 23.5875 44.6908C23.5875 42.7685 23.886 40.8608 24.4746 39.0201C24.5656 38.7375 24.6651 38.461 24.7689 38.1888C24.5614 37.3449 24.2968 36.4759 23.9686 35.5776L23.9644 35.5838ZM16.478 45.1096C16.1774 45.6477 15.8026 46.1252 15.3517 46.5356C14.9007 46.9481 14.4921 47.2748 14.1258 47.5177L13.5584 47.88C13.6473 47.4402 13.6918 46.9335 13.6918 46.3618C13.6918 46.1524 13.6854 45.9388 13.6749 45.7189C13.6304 44.873 13.5499 44.0333 13.4335 43.204C13.3171 42.3727 13.2091 41.6733 13.1075 41.0995L12.9402 40.2577C13.0842 40.2472 13.2239 40.241 13.3573 40.241C14.0687 40.241 14.7313 40.4546 15.3432 40.8838C16.0652 41.3906 16.55 42.2303 16.7935 43.4071C16.8146 43.5391 16.8273 43.671 16.8273 43.8029C16.8273 44.2531 16.7109 44.6887 16.478 45.1054V45.1096Z" fill="#EAEAEA"/>
<path d="M46.5357 32.114C46.6437 32.1161 46.7517 32.1203 46.8617 32.1203C47.0841 32.1203 47.3127 32.114 47.5456 32.1036C47.5498 32.1036 47.5519 32.1036 47.5562 32.1036C48.0008 32.0763 48.42 32.0219 48.8223 31.9486C49.7136 31.7832 50.5012 31.5089 51.1808 31.1152C51.7228 30.7927 52.2076 30.4283 52.6353 30.0221C52.9423 29.731 53.2196 29.419 53.4674 29.0861C53.5118 29.0253 53.5584 28.9667 53.6007 28.906C53.7003 28.7552 53.7955 28.6065 53.8866 28.46C53.9226 28.4013 53.9607 28.3406 53.9967 28.282C54.0348 28.2171 54.0729 28.1521 54.111 28.0893C54.166 27.9951 54.219 27.9009 54.2719 27.8087C54.4751 27.4402 54.653 27.08 54.8033 26.7324C54.545 25.3126 54.3799 23.7987 54.3036 22.2114C54.1724 22.0774 54.0348 21.958 53.8887 21.8449C53.8336 21.8009 53.7786 21.7549 53.7193 21.7151C53.2959 21.4282 52.8407 21.2314 52.3516 21.1204C51.8837 21.0324 51.4666 20.9885 51.1003 20.9885H50.9839C50.8061 20.9885 50.6536 21.0031 50.5245 21.0303C50.3974 21.0576 50.2704 21.0932 50.1497 21.1371C49.8597 21.2356 49.5442 21.4073 49.1991 21.6481C48.8434 21.9119 48.5259 22.226 48.2485 22.5883C48.149 22.7202 48.0537 22.8584 47.9648 23.0008C47.8208 23.2207 47.6705 23.4196 47.5138 23.5955C47.2471 23.9034 46.8914 24.0583 46.4468 24.0583C46.2012 24.0478 45.9577 23.985 45.7121 23.8678C45.4665 23.7526 45.2675 23.6018 45.1108 23.4133C44.878 23.072 44.7615 22.6051 44.7615 22.0104V21.8617C44.7382 21.5099 44.7276 21.1476 44.7276 20.7728C44.7276 20.3979 44.7382 20.0189 44.7615 19.6336C44.8293 18.8861 44.9902 18.2369 45.2442 17.6862C45.5004 17.1355 45.7841 16.702 46.0953 16.3837C46.396 16.0528 46.6627 15.8665 46.8956 15.8225H46.9464C47.1687 15.8225 47.3529 15.9481 47.4969 16.2015C47.6197 16.4444 47.7298 16.769 47.8314 17.1752C47.8314 17.2087 47.8378 17.2402 47.8484 17.2737C47.9479 17.7678 48.149 18.2243 48.4496 18.6432C48.7609 19.018 49.2838 19.2483 50.0185 19.3363C50.2619 19.3593 50.5181 19.3698 50.7849 19.3698C51.3862 19.3698 52.0425 19.3028 52.7539 19.1708C53.1646 19.0955 53.5415 18.9824 53.8908 18.8358C53.9628 18.8065 54.0326 18.7751 54.1004 18.7437C54.1639 18.7123 54.2253 18.6788 54.2867 18.6473C54.5619 18.4987 54.816 18.3249 55.0489 18.1259C55.1082 18.0736 55.1675 18.0233 55.2246 17.9689C55.5443 17.6003 55.7645 17.1878 55.8894 16.7376C55.9678 16.4507 56.0101 16.145 56.0101 15.8246C56.0101 15.7597 56.0037 15.6948 55.9995 15.6298C55.9974 15.5963 55.9995 15.5628 55.9932 15.5272C55.9402 14.9158 55.7857 14.2792 55.5337 13.6175C55.413 13.3034 55.2733 12.983 55.1103 12.6584C55.0764 12.583 55.0404 12.5118 55.0044 12.4385C54.9621 12.3485 54.9176 12.2585 54.8732 12.1705C54.5852 11.603 54.2571 11.0711 53.8929 10.5728C53.677 10.2775 53.4504 9.99272 53.2069 9.72259C52.4278 8.96455 51.5725 8.44733 50.6388 8.17091C49.7708 7.88403 48.8477 7.74164 47.8695 7.74164H47.6536C46.5738 7.76467 45.4898 7.9992 44.4016 8.45151C43.3451 8.89126 42.3394 9.63464 41.3825 10.6796C40.3599 11.8564 39.5151 13.05 38.8461 14.2603C38.5455 14.788 38.3104 15.2906 38.1368 15.7701C38.0818 15.9209 38.0331 16.0863 37.9865 16.256C37.887 16.6245 37.8044 17.0349 37.7452 17.4935C37.6986 17.8328 37.6584 18.1573 37.6287 18.4693C37.5948 18.8149 37.5694 19.1457 37.5546 19.4577C37.5271 20.0524 37.5123 20.4964 37.5123 20.7937C37.5123 21.3759 37.5334 21.9496 37.58 22.5087C37.724 24.0688 38.0522 25.3671 38.5666 26.4078C38.5709 26.4162 38.5751 26.4267 38.5793 26.4371C38.808 26.9146 39.0599 27.3711 39.3288 27.8045C39.6612 28.3385 40.0211 28.8411 40.4149 29.308C40.76 29.7478 41.1454 30.1582 41.5751 30.5372C41.7001 30.6482 41.8356 30.7508 41.9774 30.8513C42.3204 31.0942 42.71 31.3057 43.1524 31.4858C44.1518 31.8523 45.204 32.0617 46.3092 32.114C46.3875 32.1182 46.4658 32.1203 46.5442 32.1224L46.5357 32.114Z" fill="#EAEAEA"/>
<path d="M36.2843 17.2925C36.3224 17.0098 36.369 16.7459 36.4198 16.4884C36.2335 16.2371 36.0091 16.0444 35.7444 15.9104C35.4057 15.7408 35.0881 15.6361 34.7938 15.5963C34.4995 15.5586 34.2624 15.5377 34.0846 15.5377C33.9956 15.5377 33.9131 15.544 33.8347 15.5544L33.4685 15.5879L33.2017 15.5712C33.0133 15.5712 32.774 15.6131 32.484 15.6947C32.1939 15.7764 31.8869 15.9377 31.5588 16.1722C31.2983 16.3585 31.0464 16.6182 30.8008 16.947C30.7352 17.0328 30.6717 17.125 30.6081 17.2213C30.3774 17.5689 30.1741 17.9982 29.9984 18.5091C29.9412 18.6766 29.8862 18.8525 29.8332 19.0368C29.8227 19.0808 29.81 19.131 29.7994 19.1855C29.522 20.1969 29.2108 21.4366 28.8657 22.9066C28.7725 23.3003 28.69 23.6772 28.6159 24.0374C28.5587 24.3117 28.5058 24.5776 28.4592 24.8331C28.3385 25.4885 28.2517 26.079 28.1988 26.6025C28.0993 27.5972 28.0485 28.3322 28.0485 28.8055C28.0485 28.9206 28.0548 29.0274 28.0569 29.1384C28.0739 29.7101 28.1353 30.2336 28.2411 30.7131C28.2644 30.8199 28.2877 30.9309 28.3152 31.0335C28.4698 31.5696 28.7217 31.9758 29.0689 32.2522C30.28 31.3518 31.671 30.732 33.225 30.4095C33.2313 30.4095 33.2377 30.4074 33.244 30.4053C34.0676 30.2441 34.87 30.1645 35.628 30.1645C36.2398 30.1645 36.8327 30.2189 37.4043 30.3215C37.6647 29.7436 37.8108 29.0274 37.8447 28.1793C37.6351 27.8192 37.4361 27.4464 37.2519 27.0632C36.6548 25.8633 36.2695 24.3745 36.1107 22.6344C36.1107 22.6281 36.1107 22.6218 36.1107 22.6176C36.0641 22.0229 36.0387 21.4073 36.0387 20.7874C36.0387 20.4628 36.0535 20.0043 36.0811 19.3844C36.1107 18.7541 36.1784 18.0505 36.2843 17.2946V17.2925Z" fill="#EAEAEA"/>
<path d="M55.72 20.2409C55.72 20.712 55.7306 21.1769 55.7454 21.6355C55.7624 22.1402 55.7899 22.6385 55.8259 23.1264C55.8831 23.9012 55.9635 24.653 56.0694 25.3838C56.1244 25.7712 56.1858 26.1523 56.2536 26.5271C56.279 26.6423 56.3044 26.7533 56.3298 26.8664C56.4039 27.193 56.4822 27.5071 56.5648 27.8045C56.5838 27.8736 56.6029 27.9427 56.622 28.0097C56.6389 28.0725 56.6579 28.1333 56.6749 28.194C56.7511 28.4557 56.8316 28.7049 56.9141 28.9395C57.0073 29.2075 57.1047 29.4588 57.2042 29.6954C57.4752 30.3341 57.7695 30.8555 58.0892 31.2617C58.7222 32.2082 59.5077 32.7192 60.4414 32.7967C60.6086 32.8176 60.7801 32.8302 60.9579 32.8302C61.303 32.8302 61.6587 32.7904 62.025 32.715C62.5691 32.604 63.0434 32.4176 63.4435 32.1538C63.4668 32.137 63.4859 32.1161 63.5091 32.0994C63.706 31.9423 63.8754 31.7664 64.0152 31.5738C64.1125 31.4418 64.1994 31.3036 64.2692 31.1549C64.3052 31.0775 64.337 30.9979 64.3708 30.9183C64.3941 30.8597 64.4174 30.799 64.4386 30.7382C64.5381 30.4618 64.6186 30.1708 64.6778 29.8587C64.8345 29.241 64.9213 28.5542 64.9488 27.8024C64.9552 27.6433 64.9615 27.4841 64.9615 27.3187C64.9615 27.0988 64.9552 26.8685 64.9446 26.6256C64.8451 25.6686 64.6842 24.6676 64.4619 23.6227C64.4513 23.5892 64.4449 23.5515 64.4449 23.5076L64.6778 23.3756C65.1669 23.0678 65.7682 22.7935 66.4796 22.5506C67.2015 22.3517 67.8473 22.2532 68.4147 22.2532H68.4972C68.7979 22.2637 69.0583 22.2867 69.2806 22.3181C69.3695 22.3286 69.4648 22.3412 69.5643 22.3516C69.5855 22.626 69.5982 22.8961 69.5982 23.1599C69.5982 23.9955 69.4817 24.831 69.2488 25.6686C69.071 26.2068 68.8339 26.7303 68.5396 27.237C68.4253 27.4318 68.313 27.6202 68.1987 27.8045C68.0187 28.0977 67.8409 28.3762 67.6631 28.64L67.3963 29.0358C67.0851 29.486 66.9009 29.8252 66.8458 30.0514C66.7908 30.2775 66.7633 30.4346 66.7633 30.5225C66.7633 30.7864 66.8734 31.0461 67.0978 31.2973C67.354 31.5675 67.7054 31.8188 68.1521 32.0512C68.7703 31.4397 69.4309 30.9079 70.1253 30.4639C70.2947 30.3529 70.4683 30.2503 70.6398 30.1498C71.5396 29.6305 72.4775 29.264 73.4303 29.0567C74.1416 28.9039 74.8636 28.8264 75.5771 28.8264C75.6173 28.8264 75.6597 28.8264 75.6999 28.8285C75.5136 27.928 75.4204 26.9355 75.4204 25.8675C75.4204 25.5974 75.4395 25.0006 75.4797 24.0436C75.5199 23.0511 75.6597 21.7988 75.901 20.2116C76.1572 18.151 76.5531 16.2496 77.0803 14.5451C77.0612 14.432 77.0422 14.3169 77.021 14.2059C76.5425 12.0281 75.937 10.4764 75.2024 9.55295C74.5566 8.61901 73.7733 8.11225 72.8502 8.03477C72.6829 8.01383 72.5114 8.00127 72.3336 8.00127C71.9885 8.00127 71.6328 8.03896 71.2665 8.11644C70.7097 8.22743 70.2376 8.41379 69.848 8.67764C69.469 8.94149 69.1917 9.26606 69.0138 9.65137C68.836 10.0367 68.6962 10.4597 68.5967 10.9224C68.4189 11.6386 68.33 12.4343 68.33 13.3138C68.33 13.5777 68.3363 13.8415 68.3469 14.1054C68.4252 14.9849 68.5692 15.9041 68.7809 16.8611C68.6687 16.8506 68.5523 16.8444 68.4316 16.8444C68.1415 16.8444 67.8303 16.8674 67.4979 16.9114C66.8204 16.9993 66.1641 17.1103 65.5289 17.2422C64.9954 17.3406 64.4894 17.4726 64.0109 17.638C63.9114 17.6715 63.8098 17.7092 63.7103 17.7532C63.6997 17.5877 63.6933 17.4223 63.6933 17.259C63.6933 16.457 63.8034 15.6633 64.0279 14.8822C64.2163 14.3315 64.4555 13.8017 64.7456 13.2908C65.0356 12.7798 65.3236 12.3045 65.6136 11.8627C65.7026 11.7203 65.7915 11.5821 65.8804 11.4501C66.1916 10.9874 66.3779 10.6439 66.4393 10.4199C66.5007 10.1937 66.5304 10.0429 66.5304 9.96547C66.5304 9.69115 66.4139 9.42102 66.181 9.15717C65.8465 8.78234 65.332 8.4473 64.6376 8.14995C63.9432 7.85259 63.2 7.67251 62.4103 7.6055H62.0928C61.4364 7.6055 60.8076 7.69345 60.2085 7.86935C59.5183 8.07875 58.9297 8.34679 58.4406 8.67764C57.9854 8.97499 57.6255 9.34354 57.3651 9.78329C57.1047 10.223 56.8781 10.8387 56.6897 11.6302C56.6368 11.8312 56.586 12.0386 56.5373 12.2542C57.0517 13.3327 57.3609 14.3839 57.4498 15.3827C57.4646 15.5293 57.4731 15.6759 57.4731 15.8204C57.4731 16.9972 57.092 18.0359 56.3383 18.907C56.3107 18.9384 56.2811 18.9698 56.2514 18.9991C56.0884 19.1583 55.9127 19.3048 55.7327 19.443C55.7285 19.7111 55.7243 19.977 55.7243 20.2409H55.72Z" fill="#EAEAEA"/>
<path d="M76.8897 25.8675C76.8897 26.3471 76.9109 26.8036 76.949 27.2412C77.0062 27.8569 77.1015 28.4327 77.2391 28.9688C77.2645 28.973 77.292 28.9793 77.3174 28.9834C77.5566 29.0295 77.7959 29.084 78.0309 29.1468C78.4924 29.2703 78.9455 29.4232 79.3901 29.6075C79.7077 29.7394 80.0189 29.8839 80.3259 30.0451C81.4184 30.5875 82.3542 31.2932 83.1058 32.1412C83.1291 32.1664 83.1502 32.1915 83.1693 32.2187C83.2984 32.3883 83.4191 32.56 83.5335 32.7359C83.6372 32.6752 83.7367 32.6082 83.8299 32.5328C84.5963 31.8837 84.9816 31.157 84.9816 30.355V30.3215C84.971 29.4965 84.8143 28.617 84.5137 27.681C84.3909 27.2517 84.2808 26.8119 84.1792 26.3617C84.8461 26.0874 85.5236 25.9492 86.2138 25.9492C86.669 25.9492 87.1305 26.0099 87.5984 26.1314C87.5434 26.3303 87.4926 26.523 87.4481 26.7093C87.2703 27.348 87.1411 27.9239 87.0649 28.4411C87.0543 28.5961 87.048 28.7489 87.048 28.9039C87.048 29.5195 87.1708 30.1247 87.4143 30.7194C87.5413 31.0377 87.7043 31.3162 87.8948 31.5612C88.837 31.0293 89.8723 30.644 90.9902 30.4095C90.9965 30.4095 91.0029 30.4074 91.0092 30.4053C91.8328 30.244 92.6352 30.1645 93.3932 30.1645C93.8314 30.1645 94.257 30.1917 94.6762 30.2461C94.8371 29.9299 94.9768 29.6221 95.0975 29.3248C94.8921 28.6882 94.7079 27.9846 94.5513 27.2119C94.5513 27.2014 94.547 27.193 94.5449 27.1826C94.1871 25.2142 94.005 23.0573 94.005 20.7707C94.005 20.1781 94.0156 19.575 94.0389 18.9824C94.0389 18.974 94.0389 18.9656 94.0389 18.9593C94.0813 18.1804 94.1363 17.4391 94.2041 16.7376C93.6409 14.9702 92.8999 13.3222 91.9747 11.7957C91.0008 10.1895 89.8151 9.05248 88.4136 8.3803C87.5349 8.0285 86.6838 7.8526 85.8624 7.8526C85.5173 7.8526 85.1722 7.8861 84.8292 7.95102C83.8066 8.10598 82.8496 8.5897 81.9604 9.40218C80.8785 10.3612 80.0253 11.4543 79.3901 12.6751C79.1445 13.1484 78.9286 13.6405 78.7486 14.1535C78.6936 14.3148 78.6406 14.4802 78.5856 14.6435C78.4014 15.2089 78.2341 15.7973 78.0817 16.4088C77.8658 17.2778 77.6837 18.1908 77.5334 19.1499C77.4677 19.5624 77.4084 19.9791 77.3534 20.4063C77.1205 21.9349 76.9829 23.1683 76.9448 24.1023C76.9067 25.0362 76.8855 25.6267 76.8855 25.8675H76.8897ZM83.8786 19.5478C83.923 19.0305 84.0564 18.6243 84.2787 18.3269C84.5349 18.0191 84.7741 17.8621 84.9964 17.8558C85.2187 17.8495 85.3458 17.8474 85.3796 17.8474C85.7586 17.8474 86.1185 17.9689 86.4636 18.2097C87.0416 18.6599 87.4481 19.309 87.681 20.1571C87.9139 21.0052 88.0304 21.8344 88.0304 22.649C87.7297 22.5946 87.3973 22.5673 87.0289 22.5673C86.7071 22.5673 86.362 22.5904 85.9957 22.6343C85.206 22.7223 84.4947 22.8647 83.8595 23.0636C83.8489 22.6679 83.8426 22.2888 83.8426 21.9245V21.3151C83.832 21.0952 83.8256 20.8816 83.8256 20.6722C83.8256 20.266 83.8426 19.8912 83.8764 19.5498L83.8786 19.5478Z" fill="#EAEAEA"/>
<path d="M29.9814 13.2154C30.1868 13.6258 30.4514 13.9881 30.7775 14.298C30.8431 14.3608 30.9109 14.4237 30.9828 14.4823C31.6053 14.9995 32.3124 15.2571 33.1021 15.2571C33.8919 15.2236 34.7006 14.966 35.5284 14.4823C36.3563 13.9986 36.9914 13.4122 37.4297 12.7254C37.8679 12.0386 38.0881 11.3643 38.0881 10.7047C38.0881 10.4513 38.0606 10.1979 38.0055 9.94662C37.7832 9.01269 37.4403 8.29862 36.9787 7.81071C36.5172 7.32071 36.0493 7.00451 35.5771 6.86212C35.105 6.71973 34.7006 6.64853 34.3682 6.64853C34.2687 6.64853 34.1734 6.65481 34.0845 6.66528L33.6018 6.7637C33.28 6.83071 32.8862 6.97101 32.4268 7.1846C31.9652 7.39819 31.5016 7.71439 31.0337 8.1332C30.6928 8.43892 30.3964 8.81794 30.1444 9.27025C30.0513 9.43778 29.9645 9.61367 29.8819 9.80004C29.7845 10.0388 29.7083 10.2733 29.6511 10.5057C29.5728 10.8282 29.5305 11.1423 29.5305 11.4501C29.5305 11.8019 29.5813 12.137 29.6808 12.4574C29.7612 12.7296 29.8607 12.983 29.9814 13.2196V13.2154Z" fill="#EAEAEA"/>
<path d="M99.2938 34.4049C98.7772 33.7557 98.2119 33.2259 97.5979 32.8176C97.2401 32.5831 96.8632 32.3862 96.4737 32.2187C96.1222 32.0679 95.756 31.9465 95.3791 31.8523C95.1123 31.7853 94.8392 31.7287 94.5597 31.691C94.2379 31.647 93.9077 31.6261 93.5689 31.6177C93.5096 31.6177 93.4525 31.6115 93.3911 31.6115C92.7241 31.6115 92.0234 31.6826 91.2887 31.825C90.5646 31.9758 89.885 32.1978 89.2499 32.493C88.9619 32.6271 88.6824 32.7757 88.4114 32.937C88.1828 33.0752 87.9605 33.2239 87.7445 33.383C87.302 33.7076 86.8892 34.0761 86.5018 34.4907C85.8793 35.1566 85.3373 35.8875 84.8694 36.6832C84.6302 37.0894 84.4121 37.5124 84.2152 37.9522C83.9971 38.4359 83.8002 38.9405 83.633 39.4662C83.4339 40.086 83.273 40.71 83.1481 41.3403C83.0698 41.7298 83.0084 42.1193 82.9576 42.513C82.9047 42.9234 82.8687 43.3359 82.8454 43.7484C82.8284 44.0625 82.8157 44.3787 82.8157 44.697C82.8157 44.7619 82.8157 44.852 82.82 44.9693C82.8284 45.3315 82.8496 45.9472 82.8835 46.8162C82.911 47.5051 83.0804 48.303 83.3895 49.2055C83.5144 49.5677 83.6605 49.9489 83.8299 50.3446C83.9421 50.6085 84.0606 50.8765 84.194 51.155C85.0218 52.8993 86.2435 54.2605 87.8546 55.2384C89.1885 56.0634 90.8123 56.4759 92.7263 56.4759C93.1158 56.4759 93.5096 56.4592 93.9098 56.4257C95.5993 56.2163 97.0411 55.5064 98.2309 54.2982C98.9974 53.5192 99.6537 52.6187 100.2 51.6031C100.482 51.0817 100.731 50.531 100.956 49.9489C100.7 48.2506 100.566 46.4351 100.566 44.5316C100.566 43.9495 100.577 43.3589 100.6 42.7768C100.6 42.7663 100.6 42.758 100.6 42.7475C100.712 40.8503 100.892 39.1772 101.136 37.747C100.85 37.0182 100.537 36.3544 100.198 35.7576C99.9141 35.2592 99.6113 34.809 99.2895 34.4049H99.2938ZM93.5117 47.0549C93.1328 47.8569 92.65 48.2925 92.0615 48.3574C91.2379 48.3574 90.7298 48.0517 90.535 47.4423C90.3402 46.8308 90.2428 46.2299 90.2428 45.6352C90.2428 45.4048 90.2534 45.1619 90.2767 44.9085C90.3656 44.029 90.4821 43.3527 90.626 42.8794C90.8144 42.1968 91.041 41.6083 91.3014 41.1142C91.5618 40.62 91.8498 40.3729 92.161 40.3729C92.7728 40.4608 93.1963 40.8398 93.4292 41.512C93.6621 42.1821 93.8293 43.0679 93.9288 44.1693C93.95 44.3997 93.9627 44.6258 93.9627 44.8457C93.9627 45.6812 93.8124 46.4183 93.5117 47.057V47.0549Z" fill="#EAEAEA"/>
<path d="M102.506 33.3495C102.63 33.3537 102.753 33.3579 102.878 33.3579C103.056 33.3579 103.228 33.3516 103.395 33.3411C103.403 33.3411 103.414 33.3411 103.422 33.3411C103.803 33.3349 104.193 33.3055 104.593 33.2616C104.873 33.2302 105.156 33.1925 105.446 33.1443C106.291 33.0228 107.149 32.8574 108.014 32.6501C108.533 32.5391 109.014 32.3863 109.461 32.1999C109.674 32.1098 109.884 32.0156 110.083 31.9088C110.214 31.8418 110.341 31.7685 110.466 31.691C110.722 31.534 110.962 31.3581 111.188 31.1633C111.239 31.1194 111.29 31.0733 111.341 31.0272C111.527 30.8555 111.703 30.6713 111.868 30.4723C111.919 30.4032 111.967 30.332 112.014 30.2629C112.162 30.0451 112.287 29.8336 112.393 29.6263C112.378 29.4818 112.37 29.3353 112.37 29.1845C112.37 28.8725 112.399 28.5521 112.456 28.2317C112.499 27.97 112.52 27.6579 112.52 27.3041C112.52 27.08 112.511 26.8371 112.494 26.5816C112.35 26.2487 112.154 25.9115 111.902 25.5723C111.423 25.0216 110.835 24.6928 110.134 24.5818C110.011 24.5713 109.895 24.5651 109.784 24.5651C109.24 24.5651 108.745 24.676 108.3 24.8959C108.099 24.9839 107.906 25.0781 107.716 25.1765C107.46 25.3189 107.142 25.4634 106.765 25.6058C106.164 25.8487 105.436 26.0246 104.58 26.1335C104.468 25.4508 104.341 24.764 104.197 24.0709L104.03 23.2123C104.331 23.0699 104.648 22.9422 104.981 22.8333C105.681 22.6469 106.314 22.5527 106.882 22.5527H106.981C107.293 22.5632 107.559 22.5862 107.782 22.6176C107.936 22.6407 108.099 22.6511 108.264 22.6511C108.343 22.6616 108.419 22.6679 108.497 22.6679C108.876 22.6679 109.259 22.5799 109.649 22.404C110.117 22.1402 110.449 21.7507 110.65 21.2335C110.75 20.8817 110.801 20.5508 110.801 20.243C110.801 20.0901 110.79 19.9414 110.767 19.797C110.756 19.598 110.722 19.4263 110.667 19.2776C110.612 19.129 110.528 18.9719 110.417 18.8065C110.185 18.4317 109.816 18.0799 109.317 17.7511C108.794 17.4537 108.243 17.2674 107.665 17.1899C107.42 17.1564 107.17 17.1396 106.914 17.1396C106.613 17.1396 106.302 17.1627 105.98 17.2066C105.313 17.2946 104.663 17.4056 104.028 17.5375C103.816 17.571 103.617 17.6087 103.427 17.6527C103.437 16.9156 103.549 16.1848 103.761 15.4581L103.795 15.3911C104.407 15.2152 105.084 15.0938 105.83 15.0289H106.28C107.115 15.0289 107.854 15.1063 108.499 15.2592C108.889 15.3702 109.221 15.4791 109.501 15.5901C109.689 15.6571 109.89 15.722 110.102 15.789C110.447 15.9104 110.809 15.9712 111.186 15.9712C111.442 15.9712 111.703 15.9439 111.969 15.8895C112.06 15.8623 112.149 15.833 112.234 15.7995L112.24 15.7136C112.3 14.8739 112.448 13.8939 112.674 12.8008C112.852 11.9506 113.106 11.1423 113.43 10.3864C113.293 10.2042 113.14 10.0199 112.969 9.83566C112.391 9.2975 111.739 8.88916 111.017 8.61485C110.371 8.36147 109.66 8.19604 108.88 8.12065C107.991 8.03271 107.117 7.97198 106.261 7.93847C106.029 7.928 105.794 7.92172 105.561 7.92172C105.093 7.92172 104.638 7.94476 104.193 7.98873C103.547 8.04318 102.88 8.15416 102.192 8.31959H102.141C102.008 8.30912 101.875 8.30284 101.741 8.30284C101.108 8.30284 100.507 8.39078 99.9395 8.56668C99.2493 8.77609 98.665 9.03993 98.1886 9.35823C97.7207 9.65558 97.3566 10.022 97.0961 10.4555C96.8336 10.8911 96.6092 11.492 96.4208 12.2626C96.1053 13.4395 95.864 14.8781 95.6925 16.5826C95.6247 17.2443 95.5697 17.9479 95.5252 18.6913C95.5189 18.8086 95.5104 18.9237 95.504 19.0431C95.4807 19.6252 95.4702 20.2032 95.4702 20.7749C95.4702 21.3465 95.4807 21.8533 95.5019 22.3768C95.5358 23.2123 95.5951 24.0227 95.6819 24.808C95.7623 25.5346 95.864 26.2424 95.9889 26.9271C96.0693 27.325 96.1582 27.6977 96.2514 28.0516C96.3763 28.5228 96.5097 28.9562 96.6558 29.352C96.7468 29.597 96.8421 29.8295 96.9395 30.0472C96.9839 30.1582 97.0284 30.2734 97.0729 30.3927C97.183 30.6315 97.31 30.8555 97.4476 31.0691C97.78 31.2304 98.1018 31.4125 98.4152 31.6178C99.0122 32.0135 99.5669 32.5056 100.081 33.0857C100.113 33.0899 100.143 33.0961 100.175 33.0982H100.202L100.509 33.1317C100.664 33.1652 100.827 33.1925 100.992 33.2134C101.428 33.2825 101.862 33.3244 102.294 33.3453C102.364 33.3495 102.436 33.3516 102.506 33.3537V33.3495Z" fill="#EAEAEA"/>
<path d="M125.365 22.4354C125.02 22.3684 124.675 22.337 124.329 22.337C124.029 22.337 123.728 22.3642 123.43 22.4187C122.797 22.5401 122.229 22.716 121.727 22.9464C121.228 23.1767 120.832 23.3924 120.544 23.5892L120.093 23.8866L120.561 22.1862C120.862 21.0638 121.2 19.7425 121.579 18.218C121.958 16.6957 122.257 15.3429 122.479 14.1598C122.701 12.9767 122.814 12.1119 122.814 11.5611C122.814 11.3957 122.803 11.2533 122.78 11.1318C122.568 10.1309 122.049 9.41265 121.219 8.97918C120.391 8.54572 119.57 8.32794 118.759 8.32794C118.202 8.32794 117.607 8.40542 116.974 8.55828C116.195 8.81166 115.579 9.36867 115.122 10.2335C115.113 10.2482 115.107 10.2628 115.101 10.2775C114.955 10.5581 114.821 10.8492 114.698 11.1486C114.514 11.603 114.36 12.0783 114.233 12.5746C114.19 12.7442 114.148 12.9139 114.112 13.0877C114.046 13.406 113.987 13.7096 113.936 14.0028C113.828 14.6163 113.754 15.1796 113.714 15.6864C113.71 15.7303 113.705 15.7743 113.703 15.8162L113.629 16.6894L113.602 17.0035C113.434 17.994 113.352 18.9677 113.352 19.9247C113.352 20.266 113.362 20.601 113.386 20.9319C113.464 22.2302 113.581 23.4405 113.735 24.5609C113.832 25.1744 113.9 25.7377 113.94 26.2549C113.97 26.6277 113.985 26.9774 113.985 27.2998C113.985 27.7396 113.957 28.1312 113.902 28.4704C113.858 28.7133 113.835 28.9478 113.835 29.1803C113.835 29.4127 113.862 29.6096 113.913 29.8064C113.953 29.9655 114.008 30.1163 114.082 30.2587C114.233 30.5498 114.449 30.8073 114.737 31.0293C114.995 31.2241 115.304 31.3811 115.666 31.5005C116.208 31.157 116.835 30.9099 117.533 30.7676C117.997 30.6712 118.456 30.621 118.899 30.621C119.128 30.621 119.354 30.6356 119.574 30.6628C120.163 30.7173 120.904 30.9079 121.643 31.423C122.282 31.3141 122.907 31.1822 123.512 31.0293C124.31 30.8262 124.988 30.5686 125.551 30.2587C126.085 29.9634 126.512 29.6221 126.832 29.2305C127.243 28.6484 127.473 28.0621 127.524 27.4736C127.575 26.8852 127.598 26.502 127.598 26.3261C127.598 25.545 127.465 24.7975 127.198 24.0813C126.853 23.2123 126.241 22.6616 125.363 22.4312L125.365 22.4354Z" fill="#EAEAEA"/>
<path d="M131.388 23.8426L131.371 23.7986C130.891 22.5883 130.084 21.5999 129.036 20.934C128.28 20.1299 127.329 19.575 126.209 19.2797C126.154 19.2651 126.097 19.2525 126.044 19.2399C126.362 17.927 126.622 16.725 126.823 15.6633C127.086 14.2708 127.213 13.2259 127.213 12.4678C127.213 12.1035 127.186 11.7726 127.124 11.4439L127.109 11.3706C126.741 9.62206 125.795 8.21697 124.372 7.29769C123.91 6.81606 123.37 6.41192 122.767 6.09362C121.461 5.40888 120.112 5.06127 118.761 5.06127C117.944 5.06127 117.078 5.17016 116.191 5.38584C116.108 5.40678 116.028 5.42982 115.948 5.45494C115.24 5.68529 114.595 6.0308 114.019 6.4894C113.456 6.11666 112.854 5.80674 112.23 5.56802C111.305 5.20576 110.29 4.96913 109.215 4.86233C108.264 4.7681 107.32 4.70319 106.416 4.66759C106.132 4.65503 105.846 4.64874 105.567 4.64874C104.997 4.64874 104.434 4.67597 103.905 4.72832C103.253 4.78486 102.575 4.88537 101.896 5.02986C101.847 5.02986 101.796 5.02986 101.748 5.02986C100.784 5.02986 99.8484 5.16806 98.9741 5.43819C97.9853 5.73764 97.113 6.1376 96.3932 6.61504C95.5019 7.18461 94.7863 7.91333 94.2676 8.77817C94.2633 8.78654 94.257 8.79492 94.2527 8.8033C93.7255 8.23372 93.1581 7.72906 92.5569 7.2956C91.7375 6.52918 90.8292 5.90307 89.8553 5.4361C89.7918 5.40469 89.7262 5.37747 89.6584 5.35024C88.3881 4.84139 87.1136 4.58383 85.8687 4.58383C85.3373 4.58383 84.7995 4.63409 84.2723 4.73041C82.6188 4.99426 81.0966 5.7523 79.7543 6.9773C79.3626 7.32491 78.9878 7.69556 78.6343 8.08086C78.1727 7.51756 77.6519 7.04431 77.0803 6.67158C75.7274 5.2958 74.239 4.88537 73.2185 4.78695C72.9327 4.75345 72.6384 4.7346 72.342 4.7346C71.7725 4.7346 71.1903 4.79533 70.6165 4.91469C69.6278 5.11152 68.7449 5.4696 67.9891 5.98473L67.9552 6.00777C67.8853 6.05593 67.8155 6.10828 67.7477 6.15854C67.2396 5.77743 66.6468 5.44447 65.9545 5.14922C64.934 4.71366 63.8373 4.44353 62.6982 4.3493C62.6051 4.34092 62.5119 4.33673 62.4188 4.33673H62.1012C61.1315 4.33673 60.1809 4.47075 59.2747 4.73669L59.2493 4.74507C58.25 5.0487 57.3629 5.45704 56.6198 5.95751C56.1053 6.29465 55.648 6.68833 55.2542 7.13226C55.2076 7.09038 55.1611 7.0485 55.1145 7.00662C54.0665 6.08734 52.8978 5.42982 51.6381 5.0508C50.4524 4.6655 49.1843 4.47075 47.8716 4.47075H47.5879C46.0974 4.50216 44.5984 4.82674 43.127 5.434C42.3161 5.77114 41.5285 6.22764 40.7748 6.79722C40.6859 6.69042 40.597 6.58781 40.5038 6.4894C40.1058 6.0664 39.676 5.69995 39.225 5.4005C38.412 4.58802 37.5122 4.02891 36.5531 3.73994C35.7571 3.49912 35.0457 3.38186 34.3788 3.38186C34.1459 3.38186 33.9151 3.39651 33.6907 3.42374C33.6018 3.43421 33.515 3.44887 33.4282 3.46771L32.9433 3.56613C32.3611 3.68549 31.7365 3.90327 31.0315 4.22994C30.9405 4.27182 30.8473 4.31789 30.7563 4.36396C30.1698 3.57451 29.4902 2.9107 28.7238 2.383C27.8473 1.52445 26.8204 0.885774 25.6751 0.485815C25.62 0.466968 25.5628 0.448122 25.5036 0.43137C24.5254 0.146582 23.5769 0 22.6856 0C21.4746 0 20.3482 0.263848 19.3341 0.785261C18.1823 1.38834 17.1957 2.21339 16.3933 3.24784C16.387 3.24365 16.3827 3.23946 16.3764 3.23737C15.286 2.46886 14.0898 2.07937 12.8259 2.07937C12.2055 2.07937 11.5598 2.16313 10.8992 2.33275L10.8463 2.34741C8.22735 3.06147 6.11016 4.65712 4.55192 7.08619C3.19057 9.20744 2.33311 11.4648 2.00918 13.7913C1.72759 15.7994 1.58574 17.527 1.58574 18.9237C1.58574 20.6011 1.72124 22.3747 1.98801 24.1965C2.22725 25.8068 2.57658 27.1219 3.0593 28.217C3.13976 28.4013 3.22021 28.5709 3.30278 28.7322C3.43616 28.9918 3.57166 29.2347 3.7114 29.4651C3.18633 29.8797 2.77137 30.2587 2.45167 30.6105L2.02612 31.0628C1.93084 31.1654 1.83981 31.2743 1.75935 31.3874L1.51799 31.7203C1.15596 32.2166 0.842612 32.8302 0.565261 33.5945C0.292144 34.3421 0.124887 35.0938 0.0698402 35.8267C0.0169106 36.5178 0.0105591 36.7963 0.0105591 36.9785C0.0105591 37.8328 0.118535 38.7668 0.332371 39.753C0.338722 39.7824 0.345074 39.8117 0.351426 39.8326C0.652066 41.0744 1.14325 42.1277 1.81228 42.9653C2.30347 43.5809 2.8624 44.1002 3.47851 44.5065C4.01415 45.0467 4.60908 45.4823 5.24847 45.8027C5.43902 45.899 5.63168 45.9849 5.82434 46.0665C5.8307 46.1985 5.83493 46.3325 5.83493 46.4644C5.83493 46.5963 5.8307 46.7387 5.82434 46.8769V46.9293C5.76083 48.46 5.61051 49.9531 5.37762 51.3728L5.37127 51.4189C5.24424 52.2753 5.14261 53.0836 5.07274 53.8165C5.03887 54.1076 5.01981 54.3987 5.01981 54.6814C5.01981 56.8948 5.9789 58.7208 7.72557 59.8411C8.35649 60.5091 9.1462 61.0242 10.0714 61.3739C10.9352 61.7047 11.9239 61.8723 13.0058 61.8723C14.5874 61.8723 16.4208 61.5351 18.6079 60.8441C18.6418 60.8336 18.6756 60.8232 18.7095 60.8106C20.742 60.0986 22.5543 58.7647 24.0956 56.8424C24.4852 56.3566 24.8599 55.8456 25.2177 55.3138C25.3998 55.5315 25.5882 55.743 25.783 55.9483C26.2784 56.4655 26.8353 56.9513 27.4365 57.3931C28.0632 57.9732 28.745 58.4883 29.4606 58.9218C31.3195 60.0693 33.5446 60.6515 36.0747 60.6515C36.551 60.6515 37.0422 60.6305 37.5249 60.5907C37.5715 60.5865 37.6202 60.5823 37.6668 60.5761C40.11 60.2745 42.223 59.2338 43.9421 57.4853C44.1094 57.3157 44.2787 57.1335 44.4587 56.9283C44.7276 56.6246 44.9859 56.3042 45.2357 55.9713C45.4919 56.2624 45.7587 56.543 46.0297 56.811C46.6203 57.3994 47.2301 57.9292 47.8398 58.3899C49.3388 59.7343 50.8928 60.6745 52.4595 61.1875C54.1406 61.7362 55.612 62.0042 56.9564 62.0042C58.1399 62.0042 59.3637 61.8388 60.5916 61.5142C62.3531 61.0493 63.9812 60.2913 65.4273 59.2568C66.2996 58.6328 67.049 57.9062 67.6673 57.0874C67.8176 57.2131 67.9679 57.3345 68.1161 57.4497L68.1712 57.4916C68.1987 57.5125 68.2241 57.5313 68.2474 57.546C68.5882 57.8475 68.9122 58.1198 69.2192 58.3585L69.2721 58.3983C69.8776 58.8485 70.445 59.1856 71.0039 59.4327C71.0738 59.4641 71.1458 59.4935 71.2114 59.5207C71.7767 59.7468 72.3653 59.9164 72.9518 60.0191C73.7372 60.1656 74.5735 60.2389 75.4373 60.2389C75.7951 60.2389 76.1699 60.2264 76.5361 60.1991C78.0203 60.1154 79.4917 59.684 80.9187 58.9176L80.9865 58.8799C82.081 58.258 83.0952 57.4245 84.0077 56.3985C84.3782 56.7482 84.772 57.0769 85.1827 57.3785C85.8094 57.9585 86.4975 58.4778 87.2237 58.9197C89.0826 60.0672 91.3077 60.6494 93.8378 60.6494C94.3162 60.6494 94.8053 60.6284 95.288 60.5886C95.3367 60.5844 95.3833 60.5802 95.432 60.574C97.8773 60.2724 99.9882 59.2317 101.709 57.4832C101.743 57.4497 101.775 57.4162 101.809 57.3806C102.336 58.1051 102.95 58.6998 103.638 59.1479C105 60.5321 106.496 60.9362 107.527 61.0263C107.809 61.0598 108.097 61.0765 108.385 61.0765C108.954 61.0765 109.539 61.0137 110.121 60.8944C111.08 60.6996 111.948 60.3499 112.704 59.8515C112.742 59.8264 112.778 59.8013 112.812 59.7761C113.519 59.2673 114.087 58.6391 114.499 57.9083C114.637 58.0172 114.781 58.1219 114.927 58.2245C115.069 58.3606 115.213 58.4925 115.357 58.6161C116.202 59.3448 117.169 59.8662 118.23 60.1635C118.293 60.1824 118.359 60.197 118.429 60.2117C118.914 60.3164 119.413 60.3688 119.913 60.3688C120.559 60.3688 121.213 60.2787 121.865 60.0965L121.903 60.0861C122.805 59.8222 123.622 59.4579 124.329 59.0014C125.176 58.459 125.856 57.7575 126.349 56.9178C126.735 56.2645 127.052 55.452 127.317 54.4364C127.857 52.602 128.229 50.2567 128.46 47.258L128.464 47.1785C128.5 46.4372 128.517 45.6959 128.517 44.9776C128.517 42.7328 128.331 40.5886 127.965 38.6055C127.958 38.5678 127.95 38.5301 127.941 38.4924C127.613 36.9994 127.226 35.7472 126.762 34.6981C127.152 34.5578 127.52 34.4007 127.863 34.2332C128.947 33.7034 129.838 33.0145 130.516 32.1852C130.562 32.1266 130.607 32.068 130.649 32.0093C131.397 30.9518 131.824 29.8232 131.924 28.6568C132 27.7605 132.011 27.4443 132.011 27.237C132.011 26.0728 131.805 24.9357 131.399 23.8447L131.388 23.8426ZM131.001 28.5793C130.916 29.5844 130.541 30.5623 129.887 31.4879C129.857 31.5319 129.824 31.5738 129.79 31.6177C129.197 32.3423 128.409 32.9474 127.446 33.4207C126.859 33.7076 126.195 33.9547 125.462 34.1536C126.102 35.299 126.62 36.7942 127.035 38.6851C127.042 38.7102 127.046 38.7374 127.05 38.7626C127.408 40.6954 127.59 42.7852 127.59 44.9755C127.59 45.6791 127.573 46.4058 127.537 47.1324L127.533 47.2015C127.308 50.1311 126.944 52.4198 126.421 54.1956C126.178 55.1358 125.892 55.8771 125.547 56.4592C125.125 57.1754 124.543 57.7722 123.819 58.2391C123.184 58.6475 122.447 58.9762 121.63 59.2149L121.598 59.2233C121.033 59.3804 120.463 59.4599 119.902 59.4599C119.468 59.4599 119.034 59.4139 118.613 59.3238C118.564 59.3134 118.518 59.3008 118.471 59.2882C117.542 59.0286 116.695 58.5721 115.952 57.9313C115.801 57.8015 115.649 57.6633 115.503 57.5188C115.272 57.3638 115.054 57.1984 114.853 57.0246C114.605 56.811 114.377 56.5932 114.167 56.3733C114.074 56.6498 113.966 56.9136 113.845 57.1691C113.489 57.9146 112.958 58.5449 112.266 59.0432C112.24 59.0621 112.215 59.0788 112.187 59.0977C111.531 59.5311 110.771 59.8348 109.928 60.0065C109.405 60.1154 108.882 60.1719 108.376 60.1719C108.118 60.1719 107.862 60.1573 107.614 60.1258C106.71 60.0484 105.404 59.6903 104.218 58.4443C103.564 58.0339 102.982 57.4685 102.484 56.767C102.277 56.5011 102.082 56.21 101.898 55.8938C101.625 56.231 101.337 56.5513 101.043 56.8508C99.4716 58.4485 97.5428 59.3992 95.3092 59.6735C95.2753 59.6777 95.2415 59.6819 95.2076 59.684C94.7482 59.7217 94.2824 59.7405 93.8293 59.7405C91.475 59.7405 89.4128 59.2045 87.7001 58.1491C87.0077 57.7282 86.3535 57.2319 85.7628 56.6812C85.0959 56.1954 84.4862 55.6446 83.9421 55.0353C82.9343 56.3482 81.7868 57.3743 80.5207 58.0946L80.4656 58.124C79.1657 58.8234 77.8213 59.2191 76.4747 59.2945C76.1233 59.3196 75.7676 59.3322 75.4289 59.3322C74.6222 59.3322 73.841 59.2631 73.1105 59.127C72.5834 59.0349 72.0541 58.8841 71.5459 58.681C71.4867 58.6579 71.4274 58.6307 71.366 58.6056C70.8684 58.3857 70.3603 58.0821 69.8099 57.6737L69.7654 57.6402C69.4711 57.412 69.1493 57.1419 68.8105 56.8382H68.8063C68.7746 56.8131 68.7428 56.7901 68.7089 56.767L68.6645 56.7335C68.2834 56.4362 67.8832 56.0969 67.4725 55.72C66.831 56.8089 65.9608 57.7491 64.8789 58.5239C63.5239 59.4935 61.9974 60.2054 60.3439 60.6389C59.1922 60.9425 58.0489 61.0975 56.9437 61.0975C55.6988 61.0975 54.3205 60.8462 52.7348 60.3269C51.2803 59.8515 49.8258 58.9658 48.4136 57.6926C47.825 57.2528 47.2386 56.7419 46.6648 56.1723C46.127 55.6383 45.621 55.0646 45.151 54.4531C44.7297 55.1295 44.2639 55.7577 43.7558 56.3315C43.5843 56.5241 43.4276 56.6937 43.271 56.8529C41.7 58.4506 39.7713 59.3992 37.5376 59.6756C37.5038 59.6798 37.4699 59.684 37.436 59.6861C36.9745 59.7238 36.5108 59.7426 36.0577 59.7426C33.7034 59.7426 31.6413 59.2066 29.9285 58.1512C29.2489 57.7387 28.601 57.2466 28.0082 56.6937C27.4323 56.2749 26.903 55.8142 26.433 55.3242C25.9566 54.828 25.5247 54.2856 25.1394 53.7035C24.5953 54.6206 24.0004 55.4834 23.3631 56.2791C21.9298 58.0653 20.2551 59.3029 18.3877 59.9562C18.3644 59.9646 18.3411 59.973 18.3157 59.9793C16.2155 60.6431 14.4709 60.9656 12.9868 60.9656C12.0171 60.9656 11.1406 60.819 10.3826 60.5279C9.54847 60.2138 8.84768 59.7468 8.30145 59.1396C6.76226 58.1973 5.9175 56.6204 5.9175 54.6814C5.9175 54.4301 5.93444 54.1725 5.96408 53.9129C6.03395 53.1883 6.13345 52.3926 6.25837 51.5487L6.26472 51.5089C6.50396 50.0619 6.6564 48.5312 6.71779 46.9628V46.9209C6.72838 46.7701 6.73262 46.6131 6.73262 46.4623C6.73262 46.1126 6.71144 45.7629 6.67122 45.4174C6.33035 45.3043 5.98525 45.1619 5.64438 44.9923C5.06851 44.7033 4.53286 44.3034 4.04803 43.8029C3.48274 43.4427 2.96615 42.9716 2.51307 42.4041C1.92661 41.6691 1.49259 40.733 1.2237 39.6211C1.21947 39.6044 1.21524 39.5834 1.211 39.5625C1.00987 38.6369 0.908245 37.7658 0.908245 36.9764C0.908245 36.8214 0.914596 36.5555 0.965409 35.8917C1.0141 35.2404 1.16442 34.5703 1.4079 33.9002C1.65773 33.2155 1.93084 32.6752 2.24207 32.248L2.48555 31.9109C2.54483 31.8292 2.61046 31.7497 2.67821 31.6764L3.10376 31.2241C3.4785 30.8094 4.00992 30.3488 4.71282 29.8273C4.78481 29.775 4.85891 29.7205 4.93513 29.6682C4.6366 29.2745 4.36137 28.8264 4.10096 28.3196C4.02686 28.1773 3.95487 28.0244 3.88077 27.8527C3.43193 26.8329 3.10376 25.5932 2.87722 24.0625C2.61681 22.2847 2.48555 20.5571 2.48555 18.9216C2.48555 17.5647 2.62528 15.8811 2.90051 13.9127C3.20751 11.714 4.01839 9.58018 5.30987 7.56782C6.7432 5.33559 8.68254 3.87186 11.075 3.21852L11.1173 3.20805C11.6974 3.06147 12.2669 2.98608 12.811 2.98608C13.8802 2.98608 14.8965 3.31904 15.8301 3.97656C16.0863 4.15665 16.3298 4.36605 16.5542 4.60058C17.3588 3.28763 18.4322 2.27621 19.7469 1.58937C20.6256 1.13706 21.6079 0.908809 22.6708 0.908809C23.4753 0.908809 24.337 1.04073 25.2304 1.30249C25.2728 1.31505 25.313 1.32761 25.3532 1.34227C26.3991 1.70663 27.3307 2.29506 28.1225 3.0845C29.0435 3.70434 29.829 4.54195 30.4641 5.58268C30.7775 5.37537 31.0929 5.19738 31.4084 5.0508C32.0457 4.75554 32.6046 4.56079 33.1148 4.45609L33.5997 4.35767C33.6632 4.34511 33.7267 4.33464 33.7902 4.32626C33.9765 4.30323 34.1692 4.29276 34.3661 4.29276C34.942 4.29276 35.5644 4.39746 36.2716 4.61105C37.11 4.86443 37.8997 5.367 38.6237 6.10828C39.0429 6.37841 39.4452 6.71764 39.82 7.11342C40.1015 7.41286 40.3535 7.75209 40.5758 8.13321C41.4883 7.31863 42.458 6.6967 43.4679 6.2758C44.8313 5.71251 46.2181 5.41097 47.5921 5.38375H47.8589C49.0763 5.38375 50.2492 5.56383 51.3459 5.92191C52.4828 6.26324 53.5393 6.85794 54.4899 7.69137C54.6064 7.79397 54.7143 7.89239 54.8181 7.99291C55.0192 8.1353 55.214 8.28188 55.3982 8.43475C55.8322 7.75628 56.4081 7.17833 57.1089 6.71974C57.7821 6.26743 58.5909 5.89469 59.5013 5.61828C59.5055 5.61828 59.5161 5.61409 59.5203 5.612C60.3418 5.37118 61.2035 5.24973 62.0843 5.24973H62.4018C62.4696 5.24973 62.5352 5.25182 62.603 5.25811C63.6446 5.34606 64.646 5.59106 65.5734 5.98683C66.4774 6.37213 67.1888 6.82653 67.7393 7.36889C67.9573 7.14483 68.2008 6.93961 68.4654 6.75324L68.493 6.7344C69.1429 6.29256 69.9136 5.98055 70.7795 5.80884C71.2961 5.70204 71.8191 5.6455 72.3251 5.6455C72.5876 5.6455 72.848 5.66016 73.1021 5.69157C73.9976 5.77743 75.2955 6.14179 76.4769 7.37726C77.1353 7.79188 77.7218 8.35936 78.2193 9.06505C78.34 9.22001 78.4564 9.38334 78.5686 9.55715C78.5983 9.51736 78.63 9.47757 78.6618 9.43988C79.1678 8.8033 79.7352 8.20231 80.3534 7.65577C81.5708 6.54593 82.9406 5.86119 84.4163 5.62875C84.8927 5.5408 85.3775 5.49473 85.856 5.49473C86.9823 5.49473 88.1425 5.73136 89.3028 6.19414C89.3514 6.21298 89.398 6.23392 89.4446 6.25696C90.3486 6.69042 91.1934 7.27466 91.9556 7.9971C92.8829 8.65671 93.7192 9.49642 94.456 10.5016C94.6275 10.0262 94.8223 9.6095 95.0424 9.24514C95.4892 8.50176 96.1074 7.87355 96.878 7.37936C97.5322 6.94589 98.3283 6.58153 99.2302 6.30721C100.02 6.06221 100.865 5.93867 101.735 5.93867C101.813 5.93867 101.892 5.93867 101.97 5.94285C102.649 5.79418 103.323 5.69157 103.973 5.63503C104.481 5.58477 105.016 5.55965 105.556 5.55965C105.821 5.55965 106.092 5.56593 106.363 5.57849C107.254 5.612 108.182 5.67691 109.113 5.76905C110.104 5.86747 111.036 6.08525 111.883 6.4161C112.67 6.71555 113.405 7.13645 114.072 7.66414C114.681 7.03803 115.401 6.58991 116.223 6.32187C116.28 6.30303 116.339 6.28627 116.398 6.27162C117.216 6.07268 118.008 5.97217 118.751 5.97217C119.951 5.97217 121.156 6.28418 122.329 6.89773C122.877 7.18671 123.362 7.55735 123.773 8.00128C125.039 8.78445 125.879 10.0116 126.205 11.559L126.218 11.6198C126.267 11.8836 126.29 12.1621 126.29 12.4699C126.29 13.1714 126.167 14.1619 125.915 15.5C125.684 16.7208 125.373 18.1301 124.986 19.6902C124.96 19.7949 124.933 19.8996 124.907 20.0022C125.21 20.0252 125.511 20.065 125.809 20.1215C125.862 20.132 125.915 20.1425 125.968 20.1571C126.957 20.4168 127.787 20.9152 128.437 21.6376C129.37 22.1988 130.086 23.0594 130.512 24.1316L130.526 24.1693C130.893 25.1514 131.077 26.1795 131.077 27.237C131.077 27.415 131.066 27.7145 130.994 28.5814L131.001 28.5793Z" fill="#EAEAEA"/>
<path d="M66.7611 45.9367C66.9813 45.7776 67.2121 45.6289 67.4598 45.497C67.4619 45.497 67.4661 45.4949 67.4683 45.4928C67.7054 45.3692 67.9573 45.2624 68.222 45.1724C68.3024 45.0823 68.3723 44.9797 68.4358 44.8688C68.3469 44.808 68.258 44.7452 68.1691 44.6803C67.5297 44.2133 66.9665 43.5914 66.4901 42.8313C66.4732 42.804 66.4584 42.7789 66.4435 42.7517C65.7618 41.4869 65.3913 40.1237 65.332 38.6956C64.8938 38.6034 64.4301 38.5553 63.9347 38.5553C63.4393 38.5553 62.8676 38.5929 62.2663 38.6704C59.3298 39.0662 57.1004 39.6609 55.5782 40.4524C54.0538 41.244 53.1371 42.4774 52.8258 44.1484C52.7814 44.4353 52.7581 44.7096 52.7581 44.9735C52.7581 45.721 52.9529 46.3429 53.3424 46.8371C53.8759 47.4968 54.4158 47.8988 54.9599 48.0412C55.5041 48.1836 55.9211 48.2548 56.2112 48.2548C56.5669 48.2548 56.8845 48.1836 57.1618 48.0412L58.3792 47.3146L58.3961 47.5135C58.4067 47.635 58.4131 47.7271 58.4131 47.7941C58.4131 47.9595 58.4025 48.1564 58.3792 48.3888C58.3453 48.6966 58.267 49.0149 58.1463 49.3458C58.0235 49.6766 57.8351 49.9719 57.5789 50.2357C57.3227 50.4996 56.9734 50.6922 56.5288 50.8137C56.3276 50.8577 56.1286 50.8807 55.9275 50.8807C55.3707 50.8807 54.8266 50.7216 54.293 50.4033C53.5584 49.974 52.9253 49.3751 52.3918 48.6045C51.8583 47.8339 51.5068 47.0256 51.3417 46.1796C51.1744 45.3441 51.0834 44.6321 51.0664 44.0437C51.0495 43.4553 51.041 43.1056 51.041 42.9967C51.041 42.0628 51.1575 41.1163 51.3904 40.1593C51.6677 39.0934 52.1907 38.1134 52.9592 37.2235C53.6155 36.5303 54.2105 36.1848 54.744 36.1848C54.8435 36.1848 54.9451 36.1953 55.0446 36.2183C55.6332 36.3837 56.0651 36.7355 56.3382 37.2737C56.6114 37.8119 56.7468 38.2747 56.7468 38.66C56.7468 38.7584 56.7405 38.8589 56.7299 38.9573L57.6297 38.8903C58.2183 38.8463 58.936 38.7437 59.7808 38.5846C60.6255 38.4254 61.4597 38.1804 62.2833 37.8496C63.1069 37.5187 63.7484 37.0936 64.2099 36.5701C64.6715 36.0487 64.9022 35.4456 64.9022 34.763C64.9022 34.7232 64.898 34.6813 64.898 34.6415C64.8959 34.5452 64.8938 34.451 64.8853 34.3504C64.8112 33.9505 64.6672 33.5715 64.4534 33.2092C64.4132 33.2427 64.3708 33.2762 64.3285 33.3076C64.3052 33.3244 64.2798 33.3432 64.2565 33.3579C63.7018 33.7243 63.0518 33.984 62.3235 34.1327C61.8598 34.229 61.3983 34.2792 60.9579 34.2792C60.7293 34.2792 60.5027 34.2646 60.2825 34.2374C59.3319 34.1515 57.9875 33.7076 56.8972 32.1077C56.8294 32.0198 56.7638 31.9277 56.6982 31.8313C56.6791 31.8041 56.6622 31.7769 56.6431 31.7497C56.5923 31.6722 56.5394 31.5926 56.4907 31.5109C56.4759 31.4879 56.461 31.4649 56.4483 31.4418C56.3848 31.3371 56.3234 31.2282 56.262 31.1152C56.2514 31.0963 56.243 31.0775 56.2324 31.0586C56.1816 30.9602 56.1307 30.8597 56.0799 30.7571C56.0651 30.7278 56.0524 30.6985 56.0376 30.6691C55.9804 30.5498 55.9254 30.4262 55.8703 30.3006C55.8703 30.2985 55.8682 30.2943 55.8661 30.2922C55.8089 30.1582 55.7518 30.0179 55.6967 29.8755C55.6861 29.8504 55.6777 29.8232 55.6671 29.7959C55.6459 29.7394 55.6247 29.6787 55.6036 29.6221C55.6036 29.6221 55.6036 29.6221 55.6015 29.6221C55.3537 29.6263 55.106 29.6368 54.8562 29.6556C54.8477 29.6703 54.8393 29.6829 54.8287 29.6975C54.8223 29.7059 54.816 29.7164 54.8096 29.7247C54.5344 30.1205 54.2274 30.4912 53.8865 30.8388C53.3234 31.4146 52.6713 31.9214 51.9366 32.3569C51.9324 32.359 51.926 32.3632 51.9218 32.3653C50.7362 33.0501 49.2944 33.4479 47.6366 33.5505C47.6281 33.5505 47.6218 33.5505 47.6133 33.5505C47.4757 33.5568 47.3402 33.561 47.2047 33.5652C46.2012 34.763 45.4284 36.1115 44.8864 37.6108C44.8695 37.6569 44.8504 37.703 44.8335 37.7491C44.7149 38.0883 44.609 38.4296 44.5116 38.7688C44.3677 39.2693 44.2449 39.7719 44.1433 40.2724C43.9167 41.4073 43.7982 42.5444 43.7982 43.6877C43.7982 43.8741 43.8045 44.0626 43.8151 44.2489C43.849 45.0614 43.9506 45.8634 44.1136 46.655C44.2195 47.1743 44.355 47.6894 44.518 48.1983C44.6429 48.5898 44.7848 48.9793 44.9436 49.3646C45.0028 49.5112 45.0621 49.6578 45.1256 49.8023C45.9196 51.5906 46.9972 53.1569 48.3543 54.5055C49.7114 55.8519 51.0537 56.744 52.3833 57.1775C53.7129 57.6109 54.8668 57.8287 55.8449 57.8287C56.7447 57.8287 57.6742 57.7031 58.6311 57.4497C60.0094 57.0874 61.2607 56.5032 62.3849 55.7012C63.5091 54.8992 64.3094 53.8835 64.7879 52.6564C64.9509 52.2376 65.0843 51.8063 65.1923 51.3665C64.9107 50.7404 64.7731 50.1604 64.7731 49.6138V49.5803C64.7731 48.7197 64.9996 47.9533 65.4442 47.2978C65.4252 47.0612 65.4019 46.8225 65.3722 46.5775L65.1881 45.9681L65.4379 45.9849C65.6051 46.0079 65.7491 46.0184 65.8719 46.0184C66.0053 46.0184 66.1493 46.0121 66.3059 46.0016C66.4562 45.9912 66.6087 45.9702 66.7632 45.9388L66.7611 45.9367Z" fill="#EAEAEA"/>
<path d="M121.77 33.6259C121.596 33.3705 121.412 33.1506 121.217 32.96C120.942 32.692 120.646 32.4868 120.328 32.3444C120.042 32.2166 119.739 32.135 119.418 32.1078C119.25 32.0868 119.079 32.0742 118.901 32.0742C118.556 32.0742 118.2 32.1119 117.834 32.1894C117.504 32.2564 117.205 32.3548 116.928 32.4763C116.748 32.5559 116.574 32.6459 116.415 32.7485C116.271 32.8532 116.144 32.9684 116.03 33.0899C115.85 33.2783 115.702 33.4877 115.59 33.7222C115.406 34.1076 115.27 34.5305 115.181 34.9933C114.993 35.7304 114.897 36.5659 114.897 37.502C114.897 37.7218 114.904 37.948 114.914 38.1783C115.014 39.1248 115.175 40.109 115.397 41.1309C115.463 41.4722 115.53 41.8073 115.598 42.1382C115.632 42.3036 115.66 42.469 115.681 42.6323C115.035 41.5099 114.502 40.509 114.08 39.6295C113.847 39.1018 113.689 38.6621 113.604 38.3103C113.521 37.9585 113.462 37.5459 113.428 37.0727C113.418 37.0392 113.411 37.0078 113.411 36.9743C113.367 36.5115 113.295 35.9985 113.195 35.431C113.096 34.8656 112.939 34.3672 112.727 33.9379C112.717 33.9044 112.7 33.8772 112.677 33.8563C112.609 33.7348 112.537 33.6301 112.461 33.5422C112.327 33.3893 112.177 33.272 112.01 33.1966C111.815 33.0605 111.607 32.9391 111.391 32.8281C111.379 32.8365 111.364 32.8469 111.351 32.8553C111.292 32.893 111.233 32.9286 111.171 32.9642C111.137 32.9852 111.101 33.0061 111.067 33.027C110.97 33.0836 110.873 33.1359 110.773 33.1883C110.051 33.5757 109.234 33.8709 108.347 34.0636C107.451 34.2793 106.554 34.451 105.677 34.5787C104.913 34.7064 104.168 34.7797 103.456 34.7944C103.437 34.7944 103.418 34.7944 103.399 34.7944C103.253 35.1441 103.122 35.5566 103.005 36.0362C102.876 36.5157 102.762 37.0392 102.656 37.6067C102.565 38.1009 102.48 38.6286 102.406 39.1898C102.298 39.996 102.209 40.8713 102.139 41.8178C102.114 42.1465 102.093 42.4858 102.072 42.8313C102.048 43.4029 102.038 43.9704 102.038 44.5316C102.038 44.8855 102.044 45.2331 102.052 45.5786C102.078 46.5482 102.139 47.4884 102.237 48.3972C102.298 48.9772 102.376 49.5447 102.467 50.0996C102.501 50.3028 102.535 50.5038 102.573 50.7048C103.052 52.8826 103.664 54.4385 104.409 55.3745C105.055 56.3084 105.838 56.8089 106.761 56.8759C106.928 56.8969 107.1 56.9094 107.278 56.9094C107.623 56.9094 107.978 56.8696 108.345 56.7943C108.889 56.6833 109.363 56.4969 109.763 56.2331C110.13 55.9692 110.405 55.6446 110.589 55.2593C110.773 54.874 110.909 54.451 110.998 53.9883C111.186 53.2512 111.281 52.4156 111.281 51.4796C111.281 51.2597 111.275 51.0336 111.264 50.8032C111.165 49.8693 111.004 48.883 110.782 47.8507C110.714 47.5093 110.648 47.1743 110.58 46.8434C110.458 46.1733 110.352 45.5179 110.263 44.8792C110.54 45.363 110.813 45.8362 111.08 46.299C111.302 46.6738 111.504 47.0151 111.681 47.323C112.071 48.0161 112.376 48.571 112.598 48.9898C112.732 49.2432 112.876 49.5175 113.032 49.8149C113.288 50.2651 113.559 50.7488 113.849 51.266C114.137 51.7602 114.389 52.2 114.599 52.5853L114.715 52.8156C114.781 52.9266 114.838 53.0292 114.883 53.1297C114.95 53.3936 115.088 53.6846 115.3 54.005C115.566 54.4238 115.939 54.8384 116.418 55.251C116.896 55.6635 117.43 55.9525 118.018 56.1179C118.274 56.1723 118.535 56.1996 118.802 56.1996C119.147 56.1996 119.496 56.1493 119.852 56.0509C120.453 55.875 120.974 55.6446 121.42 55.3578C121.831 55.0939 122.155 54.7631 122.388 54.3673C122.621 53.9715 122.833 53.404 123.021 52.669C123.5 51.0629 123.845 48.8809 124.056 46.1189C124.09 45.4258 124.107 44.7452 124.107 44.073C124.107 42.0167 123.94 40.086 123.608 38.283C123.129 36.1053 122.517 34.5536 121.772 33.6301L121.77 33.6259Z" fill="#EAEAEA"/>
<path d="M74.1289 39.1206C74.3067 38.9992 74.4677 38.9385 74.6116 38.9385C74.7005 38.9385 74.7895 38.9615 74.8784 39.0034C75.0795 39.1458 75.2404 39.4054 75.3611 39.7782C75.4289 39.9645 75.4945 40.1635 75.5622 40.3729C75.63 40.5927 75.702 40.8126 75.7782 41.0325C75.9222 41.4953 76.1508 41.8575 76.462 42.1214C76.7182 42.3078 77.1459 42.402 77.7472 42.402H78.0309C78.8989 42.402 79.8326 42.2596 80.834 41.9727C81.1156 41.8827 81.3718 41.7717 81.6068 41.646C81.755 40.7624 81.9625 39.8871 82.2377 39.0264C82.5362 38.1008 82.911 37.2318 83.3514 36.4152C83.2963 36.1052 83.2243 35.7974 83.1354 35.4896C83.0613 35.1546 82.9576 34.8279 82.8263 34.5096C82.7289 34.2751 82.6146 34.0447 82.4854 33.8207C82.3436 33.5736 82.1848 33.3327 82.0048 33.0982C81.3718 32.3842 80.5863 31.7957 79.6526 31.3329C79.5658 31.2869 79.479 31.245 79.3922 31.201C78.9264 30.9707 78.448 30.7822 77.9589 30.6335C77.8403 30.5979 77.7239 30.5644 77.6032 30.533C77.4021 30.4807 77.1988 30.4367 76.9935 30.3969C76.9553 30.3906 76.9172 30.3823 76.8791 30.376C76.8474 30.3697 76.8156 30.3634 76.7839 30.3571C76.5721 30.3278 76.3583 30.3069 76.1466 30.2943C76.136 30.2943 76.1275 30.2943 76.1169 30.2943C75.9391 30.2838 75.7613 30.2776 75.5834 30.2776C74.9715 30.2776 74.3597 30.3446 73.7478 30.4765C72.7803 30.6859 71.8402 31.0879 70.9277 31.6806C70.8325 31.7413 70.7372 31.8062 70.6419 31.8711C70.3095 32.0994 69.9856 32.3527 69.6722 32.6271C69.4626 32.8113 69.2594 33.004 69.0582 33.2092C68.8762 33.3956 68.6962 33.5903 68.5205 33.7955C68.4379 33.8919 68.3553 33.9903 68.2728 34.0908C68.1246 34.2667 67.9912 34.4531 67.8642 34.6457C67.3052 35.4938 66.9517 36.4905 66.8119 37.6402C66.8119 37.6569 66.8077 37.6716 66.8056 37.6883C66.795 37.8977 66.7886 38.1008 66.7886 38.2977C66.7886 38.3396 66.7907 38.3794 66.7929 38.4191C66.7971 38.7039 66.814 38.9845 66.8458 39.2609C66.9622 40.2472 67.2608 41.1854 67.7392 42.0753C68.0547 42.58 68.4104 42.9988 68.8042 43.3317C68.8825 43.3966 68.9609 43.4616 69.0413 43.5202C69.198 43.6354 69.3504 43.7359 69.5007 43.8322C69.7379 43.983 69.9665 44.1086 70.1888 44.2133C70.2693 44.251 70.3476 44.2887 70.426 44.3201C70.4979 44.3494 70.5699 44.3767 70.6419 44.4018C71.2982 44.6447 71.8762 44.7787 72.378 44.7976C72.4225 44.7976 72.4669 44.8038 72.5114 44.8143C73.1889 44.8687 73.8283 45.0007 74.4295 45.2101C74.9864 45.4404 75.4246 45.765 75.7464 46.1838C76.0915 46.6026 76.2736 47.08 76.2969 47.6182C76.2736 48.1899 76.0915 48.6799 75.7464 49.0861C75.4352 49.4044 75.107 49.5636 74.7619 49.5636C74.7175 49.5636 74.6667 49.5573 74.6116 49.5468C74.2559 49.5259 73.9172 49.239 73.5933 48.6883C73.5255 48.5563 73.4493 48.4139 73.3604 48.259C73.1042 47.6873 72.7485 47.1973 72.2933 46.7911C71.9715 46.5607 71.6433 46.4183 71.3088 46.3618C71.0653 46.322 70.843 46.2969 70.6398 46.2864C70.5657 46.2822 70.4937 46.2801 70.4238 46.2801C70.2905 46.2801 70.1634 46.2864 70.0406 46.2969C69.6659 46.3199 69.3208 46.3723 69.0011 46.4539C68.6941 46.5335 68.4125 46.6403 68.1563 46.7743C67.8853 46.9188 67.6397 47.0842 67.4153 47.2706C67.2417 47.4151 67.085 47.5763 66.9411 47.748C66.8903 47.8088 66.8352 47.8653 66.7886 47.9281C66.4224 48.3783 66.2382 48.9291 66.2382 49.5782V49.6117C66.2382 50.0557 66.4054 50.5771 66.7336 51.1739C66.886 51.4503 67.0681 51.7434 67.2904 52.0534C67.68 52.5601 68.1352 53.0648 68.6581 53.5715C69.181 54.0783 69.6765 54.5117 70.1422 54.874C70.3159 55.0038 70.481 55.1127 70.6419 55.2133C70.8917 55.3703 71.1267 55.4959 71.3448 55.5839C71.7005 55.7263 72.0668 55.831 72.4457 55.898C73.0343 56.0069 73.6631 56.0634 74.33 56.0634C74.6201 56.0634 74.9186 56.053 75.232 56.0299C76.2334 55.9755 77.2327 55.6781 78.2341 55.1379C79.28 54.5432 80.2243 53.6762 81.069 52.5308C81.575 51.8084 81.9688 51.088 82.261 50.374C81.7381 49.0421 81.4607 47.8883 81.4226 46.8706C81.376 45.6938 81.3549 44.9818 81.3549 44.6949C81.3549 44.5861 81.3591 44.4772 81.3612 44.3662C81.086 44.1589 80.7747 43.9914 80.4191 43.8699C79.8516 43.694 79.3012 43.5851 78.7677 43.539C78.5348 43.5055 78.3061 43.4783 78.0838 43.4574C77.8615 43.4364 77.5884 43.4134 77.2666 43.3904H77.2158C76.8601 43.3569 76.4578 43.3171 76.0068 43.2668C75.5559 43.2166 75.1579 43.1537 74.8149 43.0763C74.4931 43.0093 74.2475 42.9234 74.0802 42.8124C73.9129 42.7035 73.7859 42.5758 73.697 42.4334C73.4959 42.1256 73.3625 41.7507 73.2969 41.311C73.2863 41.1895 73.2799 41.0702 73.2799 40.9487C73.2799 40.6514 73.3307 40.354 73.4302 40.0567C73.6081 39.6379 73.841 39.3259 74.131 39.1165L74.1289 39.1206Z" fill="#EAEAEA"/>
</g>
<defs>
<clipPath id="clip0_1_1299">
<rect width="132" height="62" fill="white"/>
</clipPath>
</defs>
</svg>
