<svg width="575" height="830" viewBox="0 0 575 830" fill="none" xmlns="http://www.w3.org/2000/svg">
<path d="M175.753 333.369C175.213 332.959 174.623 332.599 174.023 332.259C173.693 333.379 173.203 334.469 172.553 335.479C170.083 339.289 166.403 341.669 162.523 343.649C163.493 345.109 164.123 346.729 164.413 348.399C167.243 345.629 170.203 342.969 173.003 340.319C174.763 338.419 176.443 336.819 176.723 334.809C176.643 334.119 176.403 333.979 175.763 333.369H175.753Z" fill="#FFEDE1"/>
<path d="M174.023 351.739C173.113 352.439 172.193 353.149 171.293 353.869C174.333 355.149 177.633 356.719 180.383 359.039C181.283 358.469 182.183 357.909 183.073 357.349C187.273 354.469 200.693 347.469 198.343 341.909C196.833 338.709 192.373 335.779 187.183 333.179C187.443 335.979 186.763 338.869 185.073 341.349C181.883 346.059 178.053 348.509 174.023 351.729V351.739Z" fill="#FFEDE1"/>
<path d="M157.923 370.209C156.953 373.089 156.723 376.049 157.043 378.979C159.583 375.359 162.693 372.059 166.213 369.149C167.463 368.079 168.753 367.059 170.053 366.079C167.323 364.959 164.303 364.249 161.453 363.489C159.963 365.529 158.753 367.739 157.933 370.219L157.923 370.209Z" fill="#FFEDE1"/>
<path d="M340.843 232.479C340.673 232.469 340.503 232.459 340.333 232.459C337.033 232.459 334.213 234.829 333.653 238.159L333.603 238.449C333.213 240.789 334.003 243.049 335.783 244.639C337.563 246.229 339.903 246.759 342.203 246.109C344.313 245.509 346.473 244.979 348.633 244.559C355.473 243.209 362.383 242.759 369.293 243.209C365.303 240.189 360.363 237.319 354.393 235.259C350.033 233.759 345.473 232.819 340.843 232.479Z" fill="#E89256"/>
<path d="M160.563 431.389C159.813 432.249 158.333 431.819 157.633 430.939C157.423 430.679 157.203 430.409 156.993 430.139C158.693 447.369 162.703 464.259 169.013 480.589C169.373 481.529 169.753 482.469 170.133 483.409C170.743 483.739 171.303 484.199 171.763 484.779C172.023 485.099 187.093 503.569 216.473 516.469C233.743 524.049 252.523 528.269 272.313 529.009C297.093 529.929 323.543 525.369 350.943 515.459C358.343 511.739 365.343 507.299 371.873 502.169C380.023 495.779 387.303 488.449 393.623 480.269C386.103 473.959 379.393 467.869 381.283 459.719C383.363 450.769 394.193 447.589 403.753 444.779C406.293 444.029 409.763 443.019 411.973 442.079C410.143 441.039 407.393 439.849 405.503 439.029C397.723 435.659 388.903 431.839 388.123 423.619C387.293 414.839 396.323 409.229 405.053 403.799C408.613 401.579 415.153 397.519 415.993 395.439C414.893 394.219 410.103 392.569 407.483 391.669C400.393 389.229 391.583 386.199 389.753 378.109C387.673 368.899 396.183 361.309 403.683 354.609C407.393 351.299 414.293 345.139 413.663 342.789C413.323 341.519 408.203 340.119 405.453 339.359C398.763 337.529 390.433 335.249 388.283 327.019C387.303 323.279 387.743 319.759 389.013 316.439C383.823 319.649 378.193 321.879 372.203 323.059C368.813 323.729 365.533 324.009 362.413 324.009C348.913 324.009 338.273 318.669 333.773 315.979C331.753 314.769 331.083 312.149 332.303 310.119C333.513 308.099 336.133 307.439 338.163 308.649C341.903 310.889 350.633 315.269 361.673 315.459C353.343 312.269 347.403 304.089 347.403 294.499C347.403 284.909 353.863 276.019 362.773 273.149C354.333 274.429 345.663 278.739 338.243 284.669C338.243 284.689 338.243 284.709 338.243 284.729V292.949C338.243 295.109 336.493 296.869 334.323 296.869C332.153 296.869 330.403 295.119 330.403 292.949V292.039C328.953 293.649 327.603 295.309 326.363 297.019C325.523 298.169 324.223 298.789 322.903 298.789C322.033 298.789 321.153 298.529 320.403 297.979C318.493 296.599 318.063 293.919 319.453 292.009C335.863 269.359 363.163 258.699 382.253 267.239C381.013 265.389 380.063 263.249 379.563 260.729C378.973 257.709 379.213 255.019 379.793 252.599C369.923 250.419 359.953 250.299 350.143 252.239C348.203 252.619 346.243 253.089 344.343 253.639C343.003 254.019 341.633 254.209 340.283 254.209C336.743 254.209 333.283 252.919 330.553 250.479C326.783 247.119 325.033 242.129 325.863 237.149L325.913 236.849C327.163 229.349 333.813 224.099 341.403 224.659C346.703 225.049 351.933 226.119 356.923 227.839C368.963 231.989 377.333 239.039 382.543 244.739C383.473 242.209 383.943 240.019 383.193 237.219C382.143 233.339 379.093 229.779 374.113 226.649C373.433 226.219 372.883 225.659 372.473 225.019C339.993 218.019 296.473 215.719 237.493 221.209C234.123 222.269 229.143 223.929 224.273 226.099C223.173 227.949 222.413 229.989 223.143 232.039C226.033 238.209 238.893 240.459 245.243 241.429C247.233 241.709 247.193 244.589 245.203 244.819C240.383 245.329 235.303 245.649 230.343 245.139C226.873 244.769 223.463 244.079 220.393 242.619C224.563 248.979 233.433 254.099 241.073 257.459C241.943 257.839 242.343 258.859 241.953 259.719C241.613 260.469 240.793 260.859 240.023 260.679C235.243 259.589 230.463 258.229 225.773 256.219C218.343 253.159 212.543 248.529 209.343 242.709C209.653 243.599 210.043 244.469 210.453 245.219C216.073 255.419 226.243 262.839 231.913 273.549C236.553 281.889 235.373 292.289 227.213 297.979C219.333 303.519 209.513 303.199 201.163 306.009C199.963 306.439 199.403 306.829 199.053 307.079C199.003 307.079 199.043 307.079 199.013 307.059C198.983 307.039 199.023 307.059 198.973 307.029C198.853 307.029 198.813 307.329 199.123 308.189C199.943 310.259 201.873 312.559 203.563 314.419C207.953 319.149 213.143 323.579 217.933 328.209C225.973 336.099 235.703 345.909 234.593 358.349C233.393 371.249 219.743 376.659 209.963 381.619C209.283 381.949 208.613 382.289 207.943 382.639C212.683 386.099 224.103 392.849 238.933 390.809C251.913 389.029 260.753 381.559 265.133 376.879L266.383 365.169C266.613 363.019 268.543 361.459 270.693 361.689C272.843 361.919 274.403 363.849 274.173 365.999L272.833 378.519C275.553 383.029 278.873 386.709 282.713 389.469C301.663 403.029 326.573 388.859 327.633 388.249C329.503 387.169 331.903 387.799 332.983 389.669C334.063 391.539 333.433 393.939 331.563 395.019C330.193 395.819 322.843 399.889 312.903 401.969C309.133 402.759 305.453 403.149 301.903 403.149C298.063 403.149 294.373 402.689 290.873 401.769C287.213 425.999 274.843 441.569 264.503 441.569C264.323 441.569 264.143 441.569 263.963 441.559C253.253 440.989 242.223 423.719 241.483 398.309C240.983 398.389 240.483 398.479 239.973 398.549C221.603 401.069 207.723 392.309 202.613 388.429C201.943 387.919 201.483 387.229 201.253 386.479C193.393 391.589 186.873 398.189 183.593 407.349C178.943 419.579 180.073 433.079 183.183 445.659C183.473 446.829 182.763 448.029 181.593 448.319C180.463 448.599 179.313 447.939 178.963 446.839C176.913 440.249 175.423 433.409 174.953 426.369C174.163 415.639 176.123 404.499 181.713 395.149C196.433 369.709 232.633 369.389 221.903 350.779C218.933 345.749 214.103 341.419 209.513 337.449C208.783 336.819 208.053 336.209 207.323 335.599C207.833 336.539 208.263 337.509 208.583 338.509C212.623 352.289 197.213 359.819 187.643 365.089C186.843 365.519 186.043 365.959 185.243 366.399C186.013 369.689 185.433 373.249 183.413 376.229C180.223 380.939 176.393 383.389 172.363 386.609C169.173 389.069 156.903 392.549 156.073 408.929C156.963 414.309 163.943 427.479 160.563 431.349V431.389ZM303.633 337.449C303.263 338.059 302.873 338.659 302.473 339.229C299.513 342.599 293.533 343.309 290.313 340.269C288.253 338.199 289.383 335.599 289.933 332.839C290.143 330.029 288.033 327.579 285.223 327.369C282.413 327.159 279.963 329.269 279.753 332.079C278.873 339.709 282.823 347.079 290.913 348.099C291.293 348.149 291.683 348.179 292.073 348.199C287.003 350.799 281.093 352.039 274.823 351.939L275.083 344.199C275.153 342.039 273.463 340.229 271.303 340.149C271.253 340.149 271.213 340.149 271.163 340.149C269.063 340.149 267.323 341.819 267.253 343.929L267.013 351.099C262.063 350.089 257.563 348.189 253.773 345.409C260.523 344.829 265.053 337.949 265.603 331.559C265.203 324.809 255.503 325.029 255.403 331.789C255.493 334.549 255.063 337.919 252.013 338.779C249.803 339.339 247.413 338.319 245.833 336.539C245.423 335.819 245.033 335.079 244.673 334.309C243.023 330.749 243.463 326.949 245.253 323.989C246.033 322.699 247.063 321.579 248.283 320.689C260.293 310.579 291.123 308.259 302.523 324.589C303.433 325.659 304.133 326.889 304.593 328.219C305.593 331.119 305.423 334.459 303.633 337.439V337.449ZM228.743 475.759C230.233 467.039 235.313 462.179 237.423 460.489C239.113 459.139 241.573 459.419 242.923 461.109C244.273 462.799 243.993 465.259 242.303 466.609C240.893 467.739 237.493 471.019 236.453 477.079C236.133 478.969 236.093 480.789 236.243 482.489C237.523 480.219 239.223 477.959 241.463 475.959C247.523 470.539 254.253 469.909 257.723 470.019C259.113 470.059 260.383 470.839 261.043 472.069C261.703 473.299 261.663 474.779 260.943 475.969C260.453 476.769 258.923 479.679 259.663 483.719C259.693 483.859 259.713 483.999 259.743 484.139C260.803 482.769 262.093 481.429 263.673 480.239C267.603 477.289 271.653 476.539 274.363 476.429C275.493 476.379 276.603 476.829 277.373 477.659C278.153 478.489 278.533 479.609 278.413 480.749C278.293 481.889 278.083 485.899 280.353 489.499C281.533 491.379 283.143 492.789 284.933 493.589C284.543 490.919 284.373 487.829 284.733 484.479C285.243 479.689 286.753 475.119 289.113 471.269C290.243 469.429 292.653 468.849 294.493 469.969C296.333 471.099 296.913 473.509 295.793 475.349C294.573 477.349 293.013 480.689 292.523 485.299C292.003 490.159 292.893 494.359 293.723 497.019C294.073 498.129 293.903 499.339 293.273 500.319C292.643 501.299 291.603 501.939 290.453 502.079C289.803 502.159 289.143 502.199 288.493 502.199C282.643 502.199 277.103 499.049 273.713 493.659C271.863 490.719 271.033 487.689 270.703 485.139C269.943 485.469 269.153 485.909 268.373 486.489C265.423 488.699 264.033 491.939 263.473 493.669C263.043 494.999 261.933 495.989 260.573 496.279C259.213 496.569 257.793 496.119 256.853 495.089C255.413 493.509 252.863 490.109 251.953 485.119C251.523 482.739 251.553 480.589 251.833 478.719C250.163 479.309 248.383 480.259 246.673 481.789C241.653 486.279 240.433 492.859 240.133 495.489C239.943 497.159 238.713 498.519 237.073 498.879C235.433 499.239 233.743 498.509 232.883 497.069C231.453 494.699 226.943 486.139 228.723 475.749L228.743 475.759Z" fill="#FFEDE1"/>
<mask id="mask0_1_1054" style="mask-type:luminance" maskUnits="userSpaceOnUse" x="156" y="218" width="260" height="312">
<path d="M160.563 431.389C159.813 432.249 158.333 431.819 157.633 430.939C157.423 430.679 157.203 430.409 156.993 430.139C158.693 447.369 162.703 464.259 169.013 480.589C169.373 481.529 169.753 482.469 170.133 483.409C170.743 483.739 171.303 484.199 171.763 484.779C172.023 485.099 187.093 503.569 216.473 516.469C233.743 524.049 252.523 528.269 272.313 529.009C297.093 529.929 323.543 525.369 350.943 515.459C358.343 511.739 365.343 507.299 371.873 502.169C380.023 495.779 387.303 488.449 393.623 480.269C386.103 473.959 379.393 467.869 381.283 459.719C383.363 450.769 394.193 447.589 403.753 444.779C406.293 444.029 409.763 443.019 411.973 442.079C410.143 441.039 407.393 439.849 405.503 439.029C397.723 435.659 388.903 431.839 388.123 423.619C387.293 414.839 396.323 409.229 405.053 403.799C408.613 401.579 415.153 397.519 415.993 395.439C414.893 394.219 410.103 392.569 407.483 391.669C400.393 389.229 391.583 386.199 389.753 378.109C387.673 368.899 396.183 361.309 403.683 354.609C407.393 351.299 414.293 345.139 413.663 342.789C413.323 341.519 408.203 340.119 405.453 339.359C398.763 337.529 390.433 335.249 388.283 327.019C387.303 323.279 387.743 319.759 389.013 316.439C383.823 319.649 378.193 321.879 372.203 323.059C368.813 323.729 365.533 324.009 362.413 324.009C348.913 324.009 338.273 318.669 333.773 315.979C331.753 314.769 331.083 312.149 332.303 310.119C333.513 308.099 336.133 307.439 338.163 308.649C341.903 310.889 350.633 315.269 361.673 315.459C353.343 312.269 347.403 304.089 347.403 294.499C347.403 284.909 353.863 276.019 362.773 273.149C354.333 274.429 345.663 278.739 338.243 284.669C338.243 284.689 338.243 284.709 338.243 284.729V292.949C338.243 295.109 336.493 296.869 334.323 296.869C332.153 296.869 330.403 295.119 330.403 292.949V292.039C328.953 293.649 327.603 295.309 326.363 297.019C325.523 298.169 324.223 298.789 322.903 298.789C322.033 298.789 321.153 298.529 320.403 297.979C318.493 296.599 318.063 293.919 319.453 292.009C335.863 269.359 363.163 258.699 382.253 267.239C381.013 265.389 380.063 263.249 379.563 260.729C378.973 257.709 379.213 255.019 379.793 252.599C369.923 250.419 359.953 250.299 350.143 252.239C348.203 252.619 346.243 253.089 344.343 253.639C343.003 254.019 341.633 254.209 340.283 254.209C336.743 254.209 333.283 252.919 330.553 250.479C326.783 247.119 325.033 242.129 325.863 237.149L325.913 236.849C327.163 229.349 333.813 224.099 341.403 224.659C346.703 225.049 351.933 226.119 356.923 227.839C368.963 231.989 377.333 239.039 382.543 244.739C383.473 242.209 383.943 240.019 383.193 237.219C382.143 233.339 379.093 229.779 374.113 226.649C373.433 226.219 372.883 225.659 372.473 225.019C339.993 218.019 296.473 215.719 237.493 221.209C234.123 222.269 229.143 223.929 224.273 226.099C223.173 227.949 222.413 229.989 223.143 232.039C226.033 238.209 238.893 240.459 245.243 241.429C247.233 241.709 247.193 244.589 245.203 244.819C240.383 245.329 235.303 245.649 230.343 245.139C226.873 244.769 223.463 244.079 220.393 242.619C224.563 248.979 233.433 254.099 241.073 257.459C241.943 257.839 242.343 258.859 241.953 259.719C241.613 260.469 240.793 260.859 240.023 260.679C235.243 259.589 230.463 258.229 225.773 256.219C218.343 253.159 212.543 248.529 209.343 242.709C209.653 243.599 210.043 244.469 210.453 245.219C216.073 255.419 226.243 262.839 231.913 273.549C236.553 281.889 235.373 292.289 227.213 297.979C219.333 303.519 209.513 303.199 201.163 306.009C199.963 306.439 199.403 306.829 199.053 307.079C199.003 307.079 199.043 307.079 199.013 307.059C198.983 307.039 199.023 307.059 198.973 307.029C198.853 307.029 198.813 307.329 199.123 308.189C199.943 310.259 201.873 312.559 203.563 314.419C207.953 319.149 213.143 323.579 217.933 328.209C225.973 336.099 235.703 345.909 234.593 358.349C233.393 371.249 219.743 376.659 209.963 381.619C209.283 381.949 208.613 382.289 207.943 382.639C212.683 386.099 224.103 392.849 238.933 390.809C251.913 389.029 260.753 381.559 265.133 376.879L266.383 365.169C266.613 363.019 268.543 361.459 270.693 361.689C272.843 361.919 274.403 363.849 274.173 365.999L272.833 378.519C275.553 383.029 278.873 386.709 282.713 389.469C301.663 403.029 326.573 388.859 327.633 388.249C329.503 387.169 331.903 387.799 332.983 389.669C334.063 391.539 333.433 393.939 331.563 395.019C330.193 395.819 322.843 399.889 312.903 401.969C309.133 402.759 305.453 403.149 301.903 403.149C298.063 403.149 294.373 402.689 290.873 401.769C287.213 425.999 274.843 441.569 264.503 441.569C264.323 441.569 264.143 441.569 263.963 441.559C253.253 440.989 242.223 423.719 241.483 398.309C240.983 398.389 240.483 398.479 239.973 398.549C221.603 401.069 207.723 392.309 202.613 388.429C201.943 387.919 201.483 387.229 201.253 386.479C193.393 391.589 186.873 398.189 183.593 407.349C178.943 419.579 180.073 433.079 183.183 445.659C183.473 446.829 182.763 448.029 181.593 448.319C180.463 448.599 179.313 447.939 178.963 446.839C176.913 440.249 175.423 433.409 174.953 426.369C174.163 415.639 176.123 404.499 181.713 395.149C196.433 369.709 232.633 369.389 221.903 350.779C218.933 345.749 214.103 341.419 209.513 337.449C208.783 336.819 208.053 336.209 207.323 335.599C207.833 336.539 208.263 337.509 208.583 338.509C212.623 352.289 197.213 359.819 187.643 365.089C186.843 365.519 186.043 365.959 185.243 366.399C186.013 369.689 185.433 373.249 183.413 376.229C180.223 380.939 176.393 383.389 172.363 386.609C169.173 389.069 156.903 392.549 156.073 408.929C156.963 414.309 163.943 427.479 160.563 431.349V431.389ZM303.633 337.449C303.263 338.059 302.873 338.659 302.473 339.229C299.513 342.599 293.533 343.309 290.313 340.269C288.253 338.199 289.383 335.599 289.933 332.839C290.143 330.029 288.033 327.579 285.223 327.369C282.413 327.159 279.963 329.269 279.753 332.079C278.873 339.709 282.823 347.079 290.913 348.099C291.293 348.149 291.683 348.179 292.073 348.199C287.003 350.799 281.093 352.039 274.823 351.939L275.083 344.199C275.153 342.039 273.463 340.229 271.303 340.149C271.253 340.149 271.213 340.149 271.163 340.149C269.063 340.149 267.323 341.819 267.253 343.929L267.013 351.099C262.063 350.089 257.563 348.189 253.773 345.409C260.523 344.829 265.053 337.949 265.603 331.559C265.203 324.809 255.503 325.029 255.403 331.789C255.493 334.549 255.063 337.919 252.013 338.779C249.803 339.339 247.413 338.319 245.833 336.539C245.423 335.819 245.033 335.079 244.673 334.309C243.023 330.749 243.463 326.949 245.253 323.989C246.033 322.699 247.063 321.579 248.283 320.689C260.293 310.579 291.123 308.259 302.523 324.589C303.433 325.659 304.133 326.889 304.593 328.219C305.593 331.119 305.423 334.459 303.633 337.439V337.449ZM228.743 475.759C230.233 467.039 235.313 462.179 237.423 460.489C239.113 459.139 241.573 459.419 242.923 461.109C244.273 462.799 243.993 465.259 242.303 466.609C240.893 467.739 237.493 471.019 236.453 477.079C236.133 478.969 236.093 480.789 236.243 482.489C237.523 480.219 239.223 477.959 241.463 475.959C247.523 470.539 254.253 469.909 257.723 470.019C259.113 470.059 260.383 470.839 261.043 472.069C261.703 473.299 261.663 474.779 260.943 475.969C260.453 476.769 258.923 479.679 259.663 483.719C259.693 483.859 259.713 483.999 259.743 484.139C260.803 482.769 262.093 481.429 263.673 480.239C267.603 477.289 271.653 476.539 274.363 476.429C275.493 476.379 276.603 476.829 277.373 477.659C278.153 478.489 278.533 479.609 278.413 480.749C278.293 481.889 278.083 485.899 280.353 489.499C281.533 491.379 283.143 492.789 284.933 493.589C284.543 490.919 284.373 487.829 284.733 484.479C285.243 479.689 286.753 475.119 289.113 471.269C290.243 469.429 292.653 468.849 294.493 469.969C296.333 471.099 296.913 473.509 295.793 475.349C294.573 477.349 293.013 480.689 292.523 485.299C292.003 490.159 292.893 494.359 293.723 497.019C294.073 498.129 293.903 499.339 293.273 500.319C292.643 501.299 291.603 501.939 290.453 502.079C289.803 502.159 289.143 502.199 288.493 502.199C282.643 502.199 277.103 499.049 273.713 493.659C271.863 490.719 271.033 487.689 270.703 485.139C269.943 485.469 269.153 485.909 268.373 486.489C265.423 488.699 264.033 491.939 263.473 493.669C263.043 494.999 261.933 495.989 260.573 496.279C259.213 496.569 257.793 496.119 256.853 495.089C255.413 493.509 252.863 490.109 251.953 485.119C251.523 482.739 251.553 480.589 251.833 478.719C250.163 479.309 248.383 480.259 246.673 481.789C241.653 486.279 240.433 492.859 240.133 495.489C239.943 497.159 238.713 498.519 237.073 498.879C235.433 499.239 233.743 498.509 232.883 497.069C231.453 494.699 226.943 486.139 228.723 475.749L228.743 475.759Z" fill="white"/>
</mask>
<g mask="url(#mask0_1_1054)">
<path d="M446.213 289.799C446.213 298.829 451.553 309.369 448.913 317.509C446.273 325.649 441.753 335.829 436.643 342.859C431.483 349.959 421.133 354.039 414.043 359.199C407.013 364.309 398.953 369.829 390.513 372.569C382.073 375.309 372.643 374.909 363.623 374.909C354.603 374.909 347.093 368.379 338.943 365.729C330.503 362.989 317.963 367.409 310.933 362.289C303.833 357.129 298.343 348.059 293.183 340.959C288.073 333.929 288.613 323.489 285.873 315.049C283.233 306.909 287.003 298.809 287.003 289.789C287.003 280.769 275.083 270.029 277.723 261.879C280.463 253.439 285.633 243.869 290.753 236.839C295.913 229.739 304.533 223.389 311.623 218.229C318.653 213.119 330.013 215.079 338.453 212.339C346.593 209.699 354.593 202.589 363.613 202.589C372.633 202.589 379.453 213.329 387.593 215.969C396.033 218.709 407.293 214.879 414.313 219.989C421.413 225.149 426.213 233.449 431.373 240.549C436.533 247.649 442.203 254.919 444.943 263.359C447.683 271.799 446.193 280.759 446.193 289.789L446.213 289.799Z" fill="#E89256"/>
</g>
<path d="M398.393 296.059C396.133 296.749 393.753 295.469 393.063 293.219C392.023 289.799 390.323 285.739 387.593 282.159C387.033 282.109 386.463 282.079 385.883 282.079C377.683 282.079 371.043 286.969 371.043 292.989C371.043 299.009 377.693 303.899 385.883 303.899C387.163 303.899 388.413 303.779 389.603 303.559C389.033 304.869 388.343 306.099 387.553 307.259C389.383 306.409 391.613 306.949 392.823 308.659C392.933 308.819 393.033 308.979 393.113 309.149C394.933 306.619 397.003 304.209 398.983 301.899C404.023 296.029 408.783 290.489 407.573 285.969C406.683 282.649 402.953 280.669 396.923 277.809C395.933 277.339 394.913 276.849 393.883 276.339C397.623 281.029 399.883 286.319 401.233 290.739C401.923 292.999 400.643 295.379 398.393 296.069V296.059Z" fill="#E89256"/>
<path d="M183.393 281.469C183.393 281.469 183.393 281.479 183.393 281.489C183.483 281.399 183.553 281.309 183.613 281.209C183.603 281.149 183.543 281.229 183.393 281.469Z" fill="#D33C3C"/>
<path d="M115.693 311.459C115.613 311.559 115.553 311.679 115.503 311.809C115.583 311.709 115.663 311.609 115.723 311.509C115.793 311.399 115.743 311.379 115.693 311.459Z" fill="#D33C3C"/>
<path d="M129.683 326.889C129.603 326.849 129.673 326.939 129.823 327.079C129.863 327.109 129.913 327.139 129.953 327.169C129.873 327.059 129.783 326.959 129.683 326.889Z" fill="#D33C3C"/>
<path d="M109.503 332.089C109.503 332.089 109.573 332.149 109.603 332.179C109.543 332.049 109.473 331.929 109.383 331.859C109.333 331.829 109.373 331.929 109.503 332.089Z" fill="#D33C3C"/>
<path d="M241.133 723.799C237.883 703.109 235.323 686.769 235.163 663.069C235.083 651.499 235.603 639.819 236.713 628.329C237.433 620.809 236.143 613.329 232.963 606.689C228.983 598.369 223.823 590.769 217.633 584.089C213.023 579.119 207.873 574.709 202.263 570.879C202.443 572.639 202.793 574.169 203.153 575.389C203.993 578.219 202.373 581.189 199.543 582.019C199.033 582.169 198.533 582.239 198.023 582.239C195.723 582.239 193.593 580.739 192.903 578.409C191.713 574.379 190.643 568.039 192.273 560.639C192.273 560.609 192.283 560.569 192.293 560.539C192.293 560.519 192.293 560.509 192.293 560.489C192.913 557.759 193.853 555.099 195.093 552.579C196.653 549.429 196.133 545.589 193.763 542.809C178.943 525.359 167.253 505.709 159.013 484.409C150.753 463.029 146.203 440.739 145.453 417.969C135.233 431.789 131.823 449.129 135.313 469.689C138.663 489.479 147.443 504.949 147.533 505.099C149.003 507.659 148.113 510.919 145.563 512.389C143.003 513.859 139.743 512.979 138.273 510.429C137.943 509.849 131.293 498.169 126.973 481.609C120.073 493.329 112.053 504.339 103.023 514.469C86.8733 532.579 67.7733 547.649 46.2533 559.269C42.8433 561.149 25.4433 571.709 22.0933 592.959C19.6933 608.179 26.0033 620.309 28.8233 624.819C29.7833 626.349 29.9033 628.249 29.1433 629.889L27.8033 632.789C14.3633 661.859 6.25327 679.409 23.3033 705.429C24.8933 707.859 24.2533 711.119 21.8533 712.759C7.60329 722.509 7.28329 735.659 20.7933 756.729C21.7433 758.209 21.9033 760.059 21.2233 761.679C20.5433 763.299 19.1133 764.479 17.3933 764.839C16.5133 765.039 12.9433 766.259 12.3433 768.389C11.7233 770.579 13.6833 775.489 21.0433 782.689C22.4533 784.069 23.1533 786.069 22.5933 787.959C22.0433 789.829 20.6833 791.209 18.7933 791.639C18.3833 791.799 16.7133 792.589 15.8633 794.949C14.8333 797.809 14.4233 804.559 22.3733 818.369H63.6933C65.4333 797.079 62.9433 768.879 56.4533 736.489C51.2433 710.499 45.2533 690.819 45.1933 690.619C44.3333 687.799 45.9133 684.809 48.7333 683.949C51.5533 683.089 54.5433 684.669 55.4033 687.489C56.3733 690.669 78.5833 763.969 74.4133 818.369H251.133C250.293 799.719 248.793 781.159 246.663 763.099C244.833 747.539 242.843 734.909 241.093 723.759L241.133 723.799ZM43.7233 675.729C43.2133 675.879 42.6933 675.959 42.1833 675.959C39.8833 675.959 37.7633 674.469 37.0733 672.159C34.2533 662.769 30.9233 653.709 28.6333 647.759C27.5733 645.009 28.9433 641.919 31.7033 640.859C34.4533 639.799 37.5433 641.169 38.6033 643.929C40.9533 650.049 44.3833 659.389 47.3033 669.089C48.1533 671.909 46.5533 674.889 43.7233 675.739V675.729Z" fill="#D33C3C"/>
<path d="M264.393 433.769C267.953 433.959 274.093 428.039 278.583 417.269C274.723 415.559 270.223 415.659 266.493 417.669C261.873 420.149 259.083 425.219 259.333 430.509C261.143 432.559 262.923 433.689 264.393 433.769Z" fill="#EA4468"/>
<path d="M450.603 526.339C450.993 523.859 450.623 520.999 449.543 517.849C447.633 523.479 444.643 529.189 439.963 533.319C438.973 534.189 437.713 534.659 436.423 534.659C435.873 534.659 435.323 534.579 434.783 534.399C432.993 533.819 431.633 532.339 431.213 530.499L429.353 522.309C425.453 527.799 420.233 531.959 413.763 534.639C412.673 535.089 411.693 535.269 410.843 535.269C408.483 535.269 407.023 533.929 406.543 533.399C403.513 530.069 405.553 526.239 408.123 521.389C410.313 517.269 413.973 510.379 413.513 506.479C412.613 498.799 407.553 492.639 401.733 487.249C394.943 495.939 387.163 503.749 378.463 510.569C365.783 520.509 351.493 528.079 335.983 533.079C332.643 534.159 330.763 537.779 331.793 541.149C335.423 553.009 338.793 571.679 334.193 593.259C329.823 613.809 319.943 628.909 312.433 637.959C308.343 642.879 305.723 648.779 304.843 655.029C300.753 684.089 301.113 713.439 305.893 742.249C310.273 768.599 318.313 794.199 329.803 818.409H550.023C555.673 809.409 560.593 791.099 552.563 773.129C544.443 757.369 549.853 749.969 554.213 744.019C558.423 738.269 562.403 732.839 555.513 715.549C548.933 700.989 554.483 689.269 558.533 680.709C560.893 675.729 562.923 671.419 562.253 667.979C561.493 664.129 556.833 660.029 548.393 655.799C546.953 655.079 545.913 653.739 545.573 652.169C544.363 646.649 543.483 640.969 542.933 635.289C542.303 628.649 542.303 623.799 542.313 619.899C542.313 615.039 542.323 611.829 541.123 607.939C539.303 602.089 535.283 596.639 529.173 591.739C529.043 591.639 528.913 591.519 528.793 591.409L463.553 528.109C462.203 530.559 460.913 532.399 459.913 533.229C458.763 534.179 457.423 534.669 456.093 534.669C455.153 534.669 454.203 534.429 453.343 533.929C449.733 531.869 450.393 527.709 450.613 526.339H450.603ZM318.663 700.379C313.093 700.379 308.723 694.229 308.723 686.379C308.723 678.529 313.083 672.379 318.663 672.379C324.243 672.379 328.603 678.529 328.603 686.379C328.603 694.229 324.243 700.379 318.663 700.379ZM347.523 789.929C346.633 793.229 344.593 795.609 341.903 796.479C341.143 796.719 340.373 796.839 339.603 796.839C334.953 796.839 330.223 792.609 328.153 786.209C325.743 778.739 328.013 771.549 333.313 769.839C338.613 768.129 344.653 772.639 347.063 780.109C348.153 783.489 348.313 786.969 347.523 789.929ZM372.923 604.399C371.623 606.789 369.423 609.249 366.723 611.329C364.023 613.409 361.073 614.919 358.443 615.559C357.423 615.809 356.523 615.919 355.733 615.919C353.063 615.919 351.673 614.719 351.013 613.869C350.163 612.769 349.063 610.309 351.273 606.249C352.573 603.859 354.773 601.399 357.473 599.319C360.173 597.239 363.113 595.729 365.753 595.089C370.233 593.989 372.333 595.679 373.183 596.789C374.033 597.889 375.133 600.349 372.923 604.409V604.399Z" fill="#D33C3C"/>
<path d="M364.403 600.839C364.683 600.959 364.923 601.119 365.103 601.349C366.213 602.789 364.473 605.999 361.213 608.509C359.853 609.559 358.453 610.309 357.193 610.739C358.793 610.349 361.083 609.379 363.673 607.389C368.113 603.969 369.433 600.619 369.213 599.829C368.733 599.549 366.913 599.659 364.403 600.839Z" fill="#D33C3C"/>
<path d="M335.603 774.469C335.343 774.469 335.083 774.509 334.853 774.579C333.183 775.119 332.003 777.689 332.213 781.079C332.703 780.139 333.413 779.449 334.323 779.159C336.853 778.339 339.933 780.849 341.193 784.769C342.003 787.279 341.863 789.759 340.993 791.429C342.003 790.759 342.503 789.449 342.713 788.639C343.253 786.629 343.113 784.079 342.323 781.639C340.863 777.119 337.823 774.469 335.593 774.469H335.603Z" fill="#D33C3C"/>
<path d="M541.213 191.809C527.673 182.849 508.143 177.889 484.743 177.439C464.393 177.049 441.683 180.099 420.783 186.029C417.893 186.849 414.893 185.129 414.153 182.199C413.433 179.359 415.283 176.489 418.103 175.689C425.523 173.599 433.643 171.739 442.153 170.259C448.893 169.089 453.443 162.779 452.383 156.019C450.283 142.679 445.983 126.819 437.903 120.549C433.553 117.169 430.423 112.239 429.073 106.669C426.673 96.7588 423.603 86.8988 419.923 77.3688C409.233 49.6688 401.513 29.6488 383.523 18.8288C373.553 12.8288 361.473 10.2688 347.633 11.2088C336.303 11.9888 325.173 16.1988 315.453 23.3988C311.093 26.6288 306.303 29.1088 301.203 30.7688C286.183 35.6788 273.153 32.1788 266.723 29.6488C263.913 28.5388 262.563 25.3188 263.793 22.5188C264.953 19.8788 268.103 18.7288 270.793 19.7688C275.943 21.7688 286.173 24.4488 297.893 20.6188C298.363 20.4688 298.833 20.2988 299.293 20.1288C281.593 14.8988 263.523 12.7188 245.453 13.6688L244.993 13.6888C228.933 14.5288 219.243 15.0288 208.893 21.1688C190.923 31.8188 183.203 51.5288 172.513 78.8088C168.843 88.1888 165.763 97.8888 163.373 107.659C162.023 113.179 158.873 118.049 154.513 121.389C146.393 127.609 142.093 143.339 140.013 156.509C138.723 164.699 145.573 171.829 153.803 170.849C153.853 170.849 153.913 170.839 153.963 170.829C198.553 165.539 242.943 166.649 269.883 173.739C272.513 174.429 274.353 176.959 273.973 179.659C273.523 182.899 270.373 184.919 267.313 184.109C241.993 177.409 197.993 176.359 155.223 181.439C105.843 187.299 65.4633 199.809 41.5033 216.659C37.6533 219.369 34.2633 222.169 31.3333 225.059C50.4133 215.819 81.6333 206.959 128.703 199.279C246.763 182.529 265.033 215.009 416.793 206.389C489.883 195.159 533.773 197.389 556.053 206.469C552.293 200.759 547.353 195.849 541.213 191.789V191.809ZM348.233 193.889C344.253 194.629 339.683 194.939 334.803 194.939C321.133 194.939 305.013 192.479 292.403 190.039C289.503 189.479 287.613 186.679 288.173 183.779C288.733 180.879 291.533 178.989 294.433 179.549C307.703 182.109 332.093 186.019 346.283 183.379C349.183 182.839 351.973 184.749 352.513 187.649C353.053 190.549 351.143 193.339 348.243 193.879L348.233 193.889ZM385.543 190.119L369.523 191.809C369.333 191.829 369.143 191.839 368.953 191.839C366.253 191.839 363.943 189.799 363.653 187.059C363.343 184.129 365.473 181.499 368.403 181.189L384.423 179.499C387.363 179.189 389.983 181.319 390.293 184.249C390.603 187.179 388.473 189.809 385.543 190.119Z" fill="#333333"/>
<path d="M318.663 677.369C316.903 677.369 314.993 679.459 314.153 682.749C314.903 682.009 315.793 681.569 316.753 681.569C319.413 681.569 321.573 684.899 321.573 689.019C321.573 691.649 320.683 693.959 319.353 695.289C321.493 694.659 323.623 691.189 323.623 686.389C323.623 681.079 321.013 677.379 318.673 677.379L318.663 677.369Z" fill="#D33C3C"/>
<path d="M294.273 653.539C295.423 645.329 298.863 637.589 304.223 631.139C310.973 623.019 319.833 609.459 323.753 591.039C325.083 584.779 325.663 578.789 325.733 573.189C320.263 575.419 314.753 577.289 309.263 578.779C309.043 578.839 308.823 578.869 308.613 578.869C307.513 578.869 306.513 578.139 306.213 577.029C305.853 575.699 306.633 574.329 307.963 573.969C313.843 572.379 319.773 570.309 325.643 567.829C325.223 558.429 323.433 550.369 321.573 544.289C320.623 541.199 320.603 538.039 321.353 535.099C306.733 538.229 292.443 539.809 278.593 539.809C276.213 539.809 273.833 539.759 271.483 539.669C250.283 538.829 230.133 534.229 211.603 526.009C199.903 520.819 190.373 514.859 182.953 509.369C188.493 518.709 194.823 527.589 201.913 535.939C206.583 541.439 207.893 548.909 205.473 555.479C210.533 559.159 220.263 565.449 233.563 570.469C234.853 570.959 235.503 572.389 235.013 573.679C234.633 574.679 233.693 575.289 232.683 575.289C232.393 575.289 232.093 575.239 231.803 575.129C225.823 572.869 220.553 570.379 216.063 567.969C219.373 570.729 222.513 573.689 225.443 576.859C232.363 584.329 238.133 592.819 242.573 602.109C246.583 610.499 248.223 619.929 247.313 629.379C246.243 640.499 245.733 651.819 245.813 663.019C245.963 685.919 248.483 701.909 251.653 722.159C253.423 733.409 255.423 746.149 257.273 761.909C259.443 780.369 260.973 799.359 261.823 818.429H318.003C307.223 794.679 299.593 769.689 295.333 744.019C290.373 714.129 290.003 683.699 294.243 653.559L294.273 653.539ZM251.783 580.859C250.433 580.589 249.563 579.279 249.833 577.929C250.103 576.579 251.423 575.709 252.763 575.979C267.653 578.959 282.853 579.059 297.943 576.259C299.293 576.009 300.593 576.899 300.843 578.259C301.093 579.609 300.203 580.909 298.843 581.159C291.243 582.569 283.603 583.279 275.993 583.279C267.873 583.279 259.773 582.479 251.763 580.869L251.783 580.859Z" fill="#284472"/>
<path d="M333.513 284.739C333.513 284.739 331.643 312.039 345.403 317.219C359.163 322.409 389.413 311.809 389.413 311.809C389.413 311.809 407.253 293.089 389.413 277.749C371.573 262.409 351.633 266.919 333.513 284.739Z" fill="#FCFCF7"/>
<path d="M482.173 755.649C481.983 755.649 481.783 755.619 481.593 755.569C481.043 755.419 480.583 755.049 480.313 754.559C474.623 744.389 468.033 734.669 460.733 725.679C444.823 706.089 425.373 689.619 402.923 676.739C402.433 676.459 402.073 675.989 401.923 675.449C401.773 674.909 401.853 674.319 402.133 673.829L407.443 664.569C407.833 663.879 408.553 663.499 409.303 663.499C409.663 663.499 410.033 663.589 410.363 663.779C434.413 677.579 455.263 695.229 472.333 716.259C480.173 725.919 487.253 736.349 493.353 747.269C493.633 747.759 493.703 748.349 493.543 748.889C493.393 749.439 493.023 749.899 492.533 750.169L483.213 755.379C482.893 755.559 482.533 755.649 482.173 755.649Z" fill="#FCFCF7"/>
<path d="M409.293 665.619C433.113 679.279 453.763 696.769 470.673 717.589C478.443 727.149 485.443 737.479 491.493 748.299L482.173 753.509C476.423 743.229 469.763 733.409 462.383 724.319C446.303 704.519 426.653 687.879 403.983 674.869L409.293 665.609M409.303 661.349C407.823 661.349 406.383 662.119 405.593 663.499L400.283 672.759C399.723 673.739 399.573 674.909 399.863 675.999C400.163 677.089 400.873 678.019 401.863 678.589C424.083 691.339 443.333 707.629 459.073 727.019C466.303 735.919 472.823 745.529 478.443 755.599C478.993 756.589 479.923 757.319 481.013 757.629C481.393 757.739 481.783 757.789 482.173 757.789C482.893 757.789 483.613 757.609 484.263 757.249L493.583 752.039C494.573 751.489 495.303 750.559 495.613 749.469C495.923 748.379 495.783 747.209 495.233 746.219C489.063 735.189 481.923 724.659 474.003 714.909C456.763 693.679 435.703 675.849 411.433 661.919C410.763 661.539 410.033 661.349 409.313 661.349H409.303Z" fill="#877359"/>
<path d="M477.023 802.689C476.933 802.689 476.843 802.689 476.753 802.669C476.193 802.599 475.683 802.299 475.333 801.859C463.813 786.929 451.213 772.589 437.893 759.239C424.903 746.209 410.953 733.859 396.453 722.529C395.523 721.799 395.363 720.459 396.083 719.529L402.663 711.109C403.013 710.659 403.523 710.369 404.083 710.299C404.173 710.289 404.253 710.279 404.343 710.279C404.813 710.279 405.283 710.439 405.663 710.729C420.643 722.439 435.053 735.199 448.483 748.669C462.243 762.469 475.263 777.289 487.173 792.709C487.523 793.159 487.673 793.729 487.603 794.289C487.533 794.849 487.233 795.359 486.793 795.709L478.343 802.239C477.963 802.529 477.503 802.689 477.033 802.689H477.023Z" fill="#FCFCF7"/>
<path d="M404.343 712.419C419.263 724.079 433.593 736.779 446.963 750.179C460.663 763.909 473.623 778.659 485.473 794.019L477.023 800.549C465.443 785.549 452.783 771.139 439.403 757.719C426.343 744.629 412.343 732.219 397.773 720.829L404.353 712.409M404.343 708.149C404.173 708.149 403.993 708.159 403.823 708.179C402.703 708.319 401.673 708.899 400.973 709.789L394.393 718.209C392.943 720.069 393.273 722.749 395.133 724.209C409.563 735.489 423.443 747.779 436.373 760.749C449.633 774.039 462.163 788.309 473.633 803.169C474.323 804.069 475.343 804.649 476.473 804.799C476.653 804.819 476.833 804.829 477.013 804.829C477.953 804.829 478.873 804.519 479.623 803.939L488.073 797.409C488.973 796.719 489.553 795.699 489.703 794.569C489.843 793.449 489.543 792.309 488.843 791.409C476.873 775.909 463.803 761.029 449.973 747.169C436.483 733.639 422.013 720.819 406.963 709.059C406.213 708.469 405.283 708.149 404.333 708.149H404.343Z" fill="#877359"/>
<path d="M450.313 826.259C449.743 826.229 449.213 825.979 448.833 825.569C444.943 821.309 439.193 815.319 433.833 809.939C420.833 796.909 406.893 784.549 392.393 773.229C391.943 772.879 391.653 772.369 391.583 771.809C391.513 771.249 391.673 770.679 392.023 770.239L398.603 761.819C398.953 761.369 399.463 761.079 400.023 761.009C400.113 760.999 400.193 760.989 400.283 760.989C400.753 760.989 401.223 761.149 401.603 761.439C416.583 773.149 430.993 785.909 444.423 799.379C449.913 804.889 455.843 811.059 459.883 815.479C460.263 815.899 460.463 816.449 460.443 817.019C460.423 817.589 460.163 818.119 459.753 818.499L451.863 825.699C451.473 826.059 450.953 826.259 450.423 826.259C450.393 826.259 450.363 826.259 450.323 826.259H450.313Z" fill="#FCFCF7"/>
<path d="M400.283 763.129C415.193 774.779 429.533 787.489 442.903 800.889C448.383 806.379 454.273 812.529 458.293 816.929L450.403 824.129C446.483 819.839 440.713 813.819 435.343 808.439C422.283 795.349 408.273 782.939 393.713 771.549L400.293 763.129M400.283 758.859C400.113 758.859 399.933 758.869 399.763 758.889C398.643 759.029 397.613 759.609 396.913 760.499L390.333 768.919C389.633 769.809 389.323 770.949 389.463 772.069C389.603 773.189 390.183 774.219 391.073 774.919C405.503 786.189 419.373 798.479 432.313 811.459C437.653 816.819 443.373 822.779 447.243 827.019C448.003 827.859 449.073 828.359 450.203 828.409C450.263 828.409 450.333 828.409 450.393 828.409C451.453 828.409 452.483 828.009 453.273 827.289L461.163 820.089C462.003 819.329 462.503 818.259 462.553 817.129C462.603 815.999 462.203 814.889 461.443 814.059C457.383 809.609 451.433 803.419 445.923 797.889C432.433 784.359 417.963 771.539 402.913 759.779C402.163 759.189 401.233 758.869 400.283 758.869V758.859Z" fill="#877359"/>
<path d="M89.0832 767.569C88.9532 767.569 88.8132 767.559 88.6832 767.529L78.1933 765.539C77.6333 765.439 77.1433 765.109 76.8233 764.639C76.5033 764.169 76.3832 763.599 76.4932 763.039C79.3932 747.719 85.3133 734.809 94.0933 724.679C100.153 717.679 106.233 713.449 112.113 709.359C118.663 704.799 124.853 700.499 130.993 692.219C135.273 686.439 138.663 679.919 141.053 672.829C141.353 671.939 142.183 671.379 143.073 671.379C143.303 671.379 143.533 671.419 143.753 671.489L153.873 674.899C154.413 675.079 154.853 675.469 155.103 675.969C155.353 676.469 155.393 677.059 155.213 677.599C152.323 686.169 148.213 694.079 143.003 701.119C135.403 711.369 127.903 716.579 120.653 721.629C115.293 725.359 110.233 728.879 105.393 734.469C98.3733 742.579 93.5932 753.119 91.1832 765.819C90.9932 766.839 90.0932 767.559 89.0832 767.559V767.569Z" fill="#FCFCF7"/>
<path d="M143.063 673.529L153.183 676.939C150.363 685.299 146.363 693.009 141.283 699.869C133.893 709.829 126.543 714.949 119.433 719.899C113.963 723.709 108.793 727.309 103.773 733.089C96.5032 741.489 91.5532 752.369 89.0832 765.439L78.5932 763.449C81.4232 748.499 87.1832 735.929 95.7032 726.089C101.593 719.299 107.563 715.139 113.333 711.129C120.033 706.469 126.363 702.069 132.703 693.509C137.123 687.549 140.603 680.829 143.063 673.529ZM143.063 669.259C141.283 669.259 139.613 670.389 139.013 672.169C136.693 679.039 133.413 685.369 129.263 690.969C123.333 698.969 117.563 702.979 110.883 707.629C104.893 711.799 98.7032 716.099 92.4632 723.299C83.4432 733.719 77.3532 746.959 74.3832 762.659C74.1732 763.769 74.4132 764.919 75.0532 765.859C75.6932 766.799 76.6732 767.439 77.7932 767.649L88.2832 769.639C88.5532 769.689 88.8232 769.719 89.0832 769.719C91.0932 769.719 92.8832 768.289 93.2732 766.239C95.6032 753.919 100.223 743.709 106.993 735.889C111.653 730.509 116.613 727.059 121.863 723.409C129.253 718.269 136.903 712.949 144.703 702.419C150.053 695.209 154.263 687.089 157.223 678.309C157.583 677.239 157.503 676.059 157.003 675.049C156.503 674.039 155.613 673.259 154.543 672.899L144.423 669.489C143.973 669.339 143.513 669.269 143.063 669.269V669.259Z" fill="#877359"/>
<path d="M93.6433 821.249C93.4133 821.249 93.1833 821.209 92.9633 821.139L82.8433 817.739C81.7233 817.359 81.1233 816.149 81.5033 815.029C84.7833 805.279 89.5733 796.719 95.7533 789.589C101.813 782.589 107.893 778.359 113.773 774.269C120.323 769.709 126.513 765.409 132.653 757.129C136.933 751.349 140.323 744.829 142.713 737.739C143.013 736.849 143.843 736.289 144.733 736.289C144.963 736.289 145.193 736.329 145.413 736.399L155.533 739.809C156.073 739.989 156.513 740.379 156.763 740.879C157.013 741.389 157.053 741.969 156.873 742.509C153.983 751.079 149.873 758.989 144.663 766.029C137.063 776.269 129.573 781.489 122.313 786.539C116.953 790.269 111.883 793.789 107.053 799.379C102.153 805.029 98.3233 811.899 95.6733 819.799C95.4933 820.339 95.1033 820.779 94.6033 821.029C94.3033 821.179 93.9833 821.249 93.6533 821.249H93.6433Z" fill="#FCFCF7"/>
<path d="M144.723 738.419L154.843 741.829C152.023 750.189 148.023 757.899 142.943 764.759C135.553 774.719 128.203 779.839 121.093 784.789C115.623 788.599 110.453 792.199 105.433 797.979C100.353 803.849 96.3833 810.959 93.6433 819.109L83.5233 815.709C86.7133 806.229 91.3633 797.909 97.3633 790.989C103.253 784.199 109.223 780.039 114.993 776.029C121.693 771.369 128.023 766.969 134.363 758.409C138.783 752.449 142.263 745.729 144.723 738.429M144.723 734.149C144.073 734.149 143.423 734.299 142.823 734.589C141.803 735.089 141.033 735.979 140.673 737.049C138.353 743.929 135.073 750.249 130.923 755.849C124.993 763.839 119.223 767.859 112.543 772.509C106.553 776.679 100.363 780.989 94.1233 788.179C87.7633 795.529 82.8233 804.329 79.4633 814.339C78.7133 816.579 79.9133 818.999 82.1533 819.749L92.2733 823.149C92.7133 823.299 93.1733 823.369 93.6333 823.369C94.2833 823.369 94.9333 823.219 95.5333 822.919C96.5433 822.419 97.3233 821.529 97.6833 820.459C100.243 812.829 103.933 806.209 108.653 800.759C113.313 795.379 118.273 791.929 123.523 788.279C130.913 783.139 138.563 777.819 146.363 767.289C151.713 760.069 155.923 751.959 158.883 743.179C159.243 742.109 159.163 740.929 158.663 739.919C158.163 738.899 157.273 738.129 156.203 737.769L146.083 734.359C145.643 734.209 145.183 734.139 144.723 734.139V734.149Z" fill="#877359"/>
<g style="mix-blend-mode:hard-light" opacity="0.5">
<path d="M423.543 218.169L300.893 211.989L213.773 205.389L190.423 218.169C95.8332 320.689 409.503 232.929 454.773 324.729C478.213 275.429 423.553 218.169 423.553 218.169H423.543Z" fill="#1E0023"/>
<path d="M388.033 399.109C365.563 414.739 385.653 457.509 361.983 490.469C349.983 507.179 332.643 513.449 317.323 518.549C266.333 535.539 218.193 517.899 198.633 509.349C325.603 572.229 396.493 487.249 396.493 487.249C396.493 487.249 408.193 474.899 416.483 457.249C429.483 429.569 428.763 400.169 425.943 392.679C418.083 391.099 396.863 392.969 388.043 399.109H388.033Z" fill="#1E0023"/>
<path d="M303.693 764.729C297.533 729.469 296.373 664.979 296.373 664.979C296.373 664.979 296.373 664.979 296.373 664.999C291.693 681.329 267.683 678.249 267.273 661.279C266.633 634.519 265.073 606.599 251.783 580.859C252.013 580.239 251.733 579.439 251.053 578.509C261.273 580.649 271.123 581.959 278.583 581.369C255.993 581.619 233.063 567.199 226.743 557.479C238.183 562.229 250.233 564.149 259.133 564.889C261.023 565.049 261.573 562.389 259.793 561.749C237.453 553.689 240.883 540.979 185.013 518.199C182.753 525.429 198.623 536.739 198.623 536.739V562.909C198.623 562.909 204.003 564.939 212.173 567.659L237.123 600.529L242.203 633.069V697.549L256.413 823.379H325.753L304.803 765.429C304.423 765.199 304.073 764.959 303.703 764.719L303.693 764.729Z" fill="#1E0023"/>
<path d="M313.413 540.429C308.803 541.969 306.643 547.329 308.843 551.669C315.853 565.529 324.673 603.259 318.893 622.349C340.983 600.879 327.133 539.149 327.133 539.149C327.133 539.149 319.873 538.269 313.423 540.429H313.413Z" fill="#1E0023"/>
<path d="M446.103 172.399C445.473 129.769 419.983 120.629 419.983 108.959C398.813 19.6288 369.293 29.2688 369.293 29.2688C405.163 120.579 343.533 186.239 297.173 181.409C373.783 196.269 446.103 172.399 446.103 172.399Z" fill="#1E0023"/>
<path d="M297.173 181.409C294.143 180.819 291.113 180.179 288.073 179.469C291.013 180.439 294.063 181.089 297.173 181.409Z" fill="#1E0023"/>
<path d="M419.243 499.819C408.223 533.759 355.323 557.129 355.323 557.129C355.323 557.129 380.453 554.039 399.843 538.609C399.843 538.609 415.523 544.689 424.773 560.209C434.023 575.719 461.113 639.119 419.673 641.329L452.783 671.749L404.043 694.229L394.983 681.889L387.933 697.759C387.933 697.759 385.913 719.669 419.673 709.219C453.433 698.769 483.293 671.849 483.293 671.849L548.403 602.979L459.793 515.689L432.023 490.119L419.243 499.819Z" fill="#1E0023"/>
<path d="M133.773 443.829C132.693 477.769 160.033 528.469 182.953 546.989C165.763 546.989 148.563 520.539 148.563 520.539C132.533 524.349 60.3932 625.899 60.3932 625.899L154.733 689.589L172.363 692.469L170.163 639.569C170.163 639.569 182.503 695.999 197.493 701.729C192.643 717.599 73.6232 706.579 73.6232 706.579L9.70325 581.379L31.3032 561.979L76.5632 537.039L130.483 466.759L133.763 443.839L133.773 443.829Z" fill="#1E0023"/>
</g>
<path d="M38.6033 643.919C37.5433 641.169 34.4533 639.789 31.7033 640.849C28.9533 641.909 27.5733 644.999 28.6333 647.749C30.9233 653.699 34.2433 662.769 37.0733 672.149C37.7733 674.459 39.8933 675.949 42.1833 675.949C42.6933 675.949 43.2133 675.879 43.7233 675.719C46.5433 674.869 48.1433 671.889 47.3033 669.069C44.3833 659.369 40.9633 650.029 38.6033 643.909V643.919Z" fill="#091B35"/>
<path d="M574.083 231.639C574.723 230.629 575.023 229.399 574.863 228.119C572.393 208.659 563.053 193.439 547.103 182.899C525.213 168.429 494.063 165.119 464.453 167.459C464.103 162.969 463.383 156.069 461.913 148.539C458.423 130.649 452.553 118.399 444.463 112.119C442.023 110.219 440.243 107.399 439.463 104.159C436.963 93.7888 433.743 83.4888 429.893 73.5288C418.873 44.9588 410.163 22.3988 389.033 9.68878C377.143 2.53878 362.973 -0.531215 346.903 0.568785C334.553 1.41879 322.463 5.68878 311.733 12.9688C289.883 5.19878 267.403 1.83877 244.883 3.01877L244.423 3.03879C227.953 3.89879 216.053 4.51878 203.433 11.9988C182.303 24.5288 173.593 46.7688 162.553 74.9388C158.713 84.7488 155.493 94.9088 152.983 105.139C152.213 108.299 150.443 111.069 148.013 112.929C139.913 119.129 134.033 131.219 130.543 148.869C128.043 161.469 127.703 172.289 127.683 172.749C127.663 173.429 127.773 174.079 127.983 174.679C75.9833 183.889 48.0733 198.999 35.3533 207.949C20.0533 218.709 10.8233 231.079 7.84325 244.799C-1.11675 266.539 41.1533 287.309 88.6233 297.209C89.6833 298.669 90.9433 300.019 92.3933 301.229C98.4333 306.499 106.553 309.089 113.233 312.599C113.553 312.769 113.843 312.939 114.113 313.099C113.513 313.569 112.853 314.019 112.273 314.419C107.713 317.489 102.153 320.029 98.3433 324.729C93.7933 330.349 94.5432 337.999 100.053 342.559C105.953 347.379 113.873 349.029 120.743 351.509C124.803 353.019 134.533 355.949 134.723 360.669C134.493 363.359 132.243 365.699 130.433 367.759C125.333 373.239 119.693 378.189 115.543 384.889C109.603 393.909 108.443 405.899 112.253 415.889C114.023 420.809 116.623 425.269 119.573 429.339C120.243 430.249 121.513 430.519 122.493 429.919C123.523 429.289 123.853 427.939 123.223 426.899C118.453 419.189 115.173 409.979 116.833 401.039C118.273 392.729 123.683 386.559 129.893 381.009C128.613 384.409 127.943 388.109 128.163 392.229C128.503 399.609 132.153 406.609 136.623 412.109C126.103 426.649 121.783 444.599 123.953 464.979C116.193 480.329 106.493 494.589 95.1033 507.369C79.7833 524.549 61.6533 538.849 41.1933 549.899C36.9733 552.219 15.7133 565.139 11.5933 591.309C9.00325 607.709 14.5732 621.139 18.3332 627.959L18.1633 628.319C5.35326 656.029 -4.88675 678.189 11.8133 707.069C3.95325 713.799 0.0832644 722.049 0.293264 731.649C0.463264 739.209 3.19325 747.599 8.62325 757.169C5.98325 758.839 3.31325 761.449 2.15325 765.409C0.40325 771.409 2.73326 778.079 9.25326 785.709C8.05326 787.019 6.92326 788.699 6.07326 790.839C2.66326 799.459 5.61324 811.469 14.8332 826.539C15.8032 828.129 17.5333 829.089 19.3833 829.089H326.443C326.443 829.089 326.453 829.089 326.463 829.089H326.483H552.823C554.473 829.089 556.033 828.319 557.043 827.019C566.933 814.229 571.903 790.059 562.253 768.619C562.213 768.529 562.173 768.439 562.123 768.349C556.943 758.369 559.043 755.509 562.833 750.329C567.773 743.579 574.533 734.339 565.383 711.479C565.353 711.399 565.323 711.319 565.283 711.249C560.673 701.149 564.323 693.439 568.183 685.279C573.393 674.269 579.833 660.649 555.493 647.459C554.633 643.129 553.983 638.699 553.563 634.279C552.983 628.159 552.983 623.789 552.993 619.929C552.993 614.509 553.013 610.229 551.313 604.779C548.873 596.929 543.743 589.799 536.053 583.579L468.133 517.689C470.673 510.439 472.243 502.419 470.563 497.529C468.133 490.499 462.493 486.679 458.363 483.889C456.853 482.869 454.593 481.339 454.123 480.539C454.753 478.719 461.483 475.479 464.743 473.909C472.703 470.079 480.933 466.109 481.003 458.209C481.063 451.349 474.633 447.549 469.463 444.489C467.533 443.349 463.053 440.699 462.743 439.459C463.283 438.589 466.163 436.999 467.913 436.039C472.863 433.309 479.643 429.569 482.253 421.799C485.013 413.579 481.153 407.229 477.753 401.619C474.903 396.919 472.213 392.489 472.853 386.679C473.503 380.759 477.173 377.449 481.413 373.609C486.133 369.339 492.013 364.029 492.173 354.709C492.323 345.869 487.233 339.709 483.143 334.759C478.893 329.619 476.523 326.489 477.363 322.119C477.783 319.929 478.853 318.259 480.093 316.329C482.083 313.229 484.553 309.379 484.043 303.409C483.743 299.869 482.473 296.479 480.273 293.259C530.893 280.769 569.723 253.639 574.093 231.649L574.083 231.639ZM109.503 332.089C109.373 331.929 109.333 331.829 109.383 331.859C109.463 331.929 109.543 332.049 109.603 332.179C109.573 332.149 109.533 332.109 109.503 332.089ZM115.723 311.499C115.663 311.599 115.583 311.699 115.503 311.799C115.553 311.669 115.613 311.549 115.693 311.449C115.753 311.369 115.793 311.389 115.723 311.499ZM129.823 327.079C129.673 326.949 129.613 326.849 129.683 326.889C129.783 326.959 129.873 327.059 129.953 327.169C129.913 327.139 129.863 327.109 129.823 327.079ZM133.203 328.919C135.943 327.469 138.943 326.219 141.823 324.729C146.043 326.749 150.413 327.999 154.663 329.709C152.353 331.189 149.883 332.519 147.473 333.999C144.013 332.709 140.533 331.609 137.143 330.419C135.803 329.919 134.463 329.459 133.203 328.929V328.919ZM135.273 386.369C137.913 378.369 144.713 373.039 151.373 367.899C151.453 367.839 151.523 367.779 151.603 367.719C150.933 370.319 150.623 373.089 150.783 376.089C150.943 379.459 151.793 382.749 153.093 385.849C151.203 390.009 150.033 394.469 149.773 399.129C148.873 399.309 148.013 399.719 147.293 400.349C144.413 402.899 141.803 405.609 139.433 408.459C135.203 401.859 132.743 393.839 135.273 386.359V386.369ZM74.4433 818.409C78.6233 764.009 56.4132 690.709 55.4333 687.529C54.5732 684.709 51.5833 683.129 48.7633 683.989C45.9433 684.849 44.3533 687.839 45.2233 690.659C45.2833 690.859 51.2833 710.539 56.4833 736.529C62.9733 768.919 65.4633 797.119 63.7233 818.409H22.4032C14.4532 804.599 14.8733 797.849 15.8933 794.989C16.7433 792.629 18.4033 791.839 18.8233 791.679C20.7133 791.259 22.0833 789.869 22.6233 787.999C23.1733 786.109 22.4833 784.099 21.0733 782.729C13.7133 775.529 11.7533 770.619 12.3733 768.429C12.9733 766.289 16.5433 765.079 17.4233 764.879C19.1433 764.519 20.5733 763.339 21.2533 761.719C21.9333 760.099 21.7733 758.249 20.8233 756.769C7.31326 735.699 7.63326 722.549 21.8833 712.799C24.2833 711.159 24.9232 707.899 23.3332 705.469C6.28324 679.449 14.3932 661.899 27.8332 632.829L29.1733 629.929C29.9233 628.289 29.8033 626.389 28.8533 624.859C26.0333 620.349 19.7233 608.219 22.1233 592.999C25.4733 571.749 42.8733 561.189 46.2833 559.309C67.8033 547.699 86.9132 532.629 103.053 514.509C112.083 504.379 120.103 493.369 127.003 481.649C131.323 498.219 137.973 509.899 138.303 510.469C139.773 513.019 143.033 513.899 145.593 512.429C148.153 510.959 149.033 507.699 147.563 505.139C147.473 504.989 138.703 489.519 135.343 469.729C131.853 449.169 135.273 431.829 145.483 418.009C146.233 440.769 150.783 463.059 159.043 484.449C167.273 505.749 178.963 525.399 193.793 542.849C196.163 545.629 196.683 549.469 195.123 552.619C193.883 555.139 192.933 557.799 192.323 560.529C192.323 560.549 192.323 560.559 192.323 560.579C192.323 560.609 192.313 560.649 192.303 560.679C190.673 568.069 191.733 574.419 192.933 578.449C193.623 580.769 195.743 582.279 198.053 582.279C198.553 582.279 199.063 582.209 199.573 582.059C202.403 581.219 204.013 578.249 203.183 575.429C202.823 574.209 202.473 572.679 202.293 570.919C207.903 574.749 213.053 579.159 217.663 584.129C223.853 590.809 229.013 598.409 232.993 606.729C236.163 613.369 237.463 620.849 236.743 628.369C235.633 639.849 235.113 651.539 235.193 663.109C235.353 686.809 237.923 703.149 241.163 723.839C242.913 734.989 244.903 747.629 246.733 763.179C248.863 781.229 250.353 799.799 251.203 818.449H74.4833L74.4433 818.409ZM185.073 341.349C186.763 338.869 187.443 335.979 187.183 333.179C192.383 335.779 196.833 338.709 198.343 341.909C200.693 347.469 187.263 354.469 183.073 357.349C182.183 357.909 181.283 358.469 180.383 359.039C177.633 356.719 174.333 355.149 171.293 353.869C172.203 353.149 173.113 352.439 174.023 351.739C178.053 348.519 181.883 346.069 185.073 341.359V341.349ZM183.393 281.489C183.393 281.489 183.393 281.479 183.393 281.469C183.543 281.219 183.593 281.149 183.613 281.209C183.553 281.309 183.473 281.399 183.393 281.489ZM172.993 340.319C170.193 342.979 167.233 345.629 164.403 348.399C164.113 346.729 163.473 345.109 162.513 343.649C166.403 341.669 170.073 339.289 172.543 335.479C173.203 334.469 173.683 333.379 174.013 332.259C174.613 332.599 175.203 332.959 175.743 333.369C176.383 333.979 176.633 334.119 176.703 334.809C176.423 336.819 174.743 338.429 172.983 340.319H172.993ZM170.043 366.079C168.743 367.059 167.463 368.079 166.203 369.149C162.683 372.059 159.573 375.359 157.033 378.979C156.713 376.049 156.943 373.089 157.913 370.209C158.733 367.739 159.943 365.519 161.433 363.479C164.293 364.239 167.313 364.959 170.033 366.069L170.043 366.079ZM172.363 386.659C176.393 383.439 180.223 380.989 183.413 376.279C185.433 373.299 186.013 369.739 185.243 366.449C186.043 366.009 186.853 365.569 187.643 365.139C197.213 359.869 212.623 352.339 208.583 338.559C208.263 337.549 207.833 336.589 207.323 335.649C208.053 336.259 208.783 336.879 209.513 337.499C214.103 341.469 218.933 345.799 221.903 350.829C232.643 369.439 196.443 369.759 181.713 395.199C176.123 404.539 174.163 415.689 174.953 426.419C175.433 433.459 176.913 440.299 178.963 446.889C179.313 447.989 180.453 448.649 181.593 448.369C182.763 448.079 183.483 446.879 183.183 445.709C180.083 433.139 178.943 419.639 183.593 407.399C186.873 398.249 193.393 391.639 201.253 386.529C201.483 387.279 201.943 387.969 202.613 388.479C207.723 392.359 221.603 401.119 239.973 398.599C240.483 398.529 240.983 398.439 241.483 398.359C242.223 423.759 253.253 441.039 263.963 441.609C264.143 441.609 264.323 441.619 264.503 441.619C274.833 441.619 287.203 426.049 290.873 401.819C294.373 402.729 298.063 403.199 301.903 403.199C305.443 403.199 309.123 402.809 312.903 402.019C322.833 399.939 330.183 395.869 331.563 395.069C333.433 393.979 334.073 391.589 332.983 389.719C331.893 387.849 329.503 387.209 327.633 388.299C326.583 388.909 301.673 403.079 282.713 389.519C278.863 386.769 275.553 383.089 272.833 378.569L274.173 366.049C274.403 363.899 272.843 361.969 270.693 361.739C268.543 361.509 266.613 363.069 266.383 365.219L265.133 376.929C260.753 381.609 251.903 389.079 238.933 390.859C224.103 392.889 212.683 386.149 207.943 382.689C208.613 382.339 209.283 381.999 209.963 381.669C219.743 376.709 233.393 371.299 234.593 358.399C235.713 345.959 225.973 336.149 217.933 328.259C213.143 323.639 207.953 319.199 203.563 314.469C201.863 312.619 199.943 310.309 199.123 308.239C198.813 307.379 198.853 307.079 198.973 307.079C199.023 307.099 198.983 307.079 199.013 307.109C199.043 307.129 199.003 307.129 199.053 307.129C199.403 306.889 199.963 306.499 201.163 306.059C209.513 303.239 219.333 303.569 227.213 298.029C235.373 292.339 236.553 281.949 231.913 273.599C226.243 262.889 216.073 255.469 210.453 245.269C210.043 244.519 209.653 243.649 209.343 242.759C212.543 248.579 218.343 253.209 225.773 256.269C230.463 258.279 235.243 259.639 240.023 260.729C240.793 260.909 241.613 260.519 241.953 259.769C242.343 258.899 241.953 257.879 241.073 257.509C233.443 254.139 224.563 249.029 220.393 242.669C223.463 244.129 226.873 244.819 230.343 245.189C235.303 245.689 240.383 245.369 245.203 244.869C247.193 244.639 247.223 241.759 245.243 241.479C238.893 240.509 226.033 238.259 223.143 232.089C222.413 230.029 223.163 227.999 224.273 226.149C229.143 223.989 234.123 222.319 237.493 221.259C296.483 215.769 339.993 218.069 372.473 225.069C372.883 225.709 373.433 226.269 374.113 226.699C379.093 229.829 382.143 233.389 383.193 237.269C383.943 240.069 383.473 242.259 382.543 244.789C377.333 239.089 368.963 232.039 356.923 227.889C351.923 226.169 346.703 225.099 341.403 224.709C333.813 224.149 327.173 229.399 325.913 236.899L325.863 237.199C325.033 242.179 326.783 247.169 330.553 250.529C333.283 252.969 336.733 254.259 340.283 254.259C341.633 254.259 343.003 254.069 344.343 253.689C346.243 253.149 348.193 252.679 350.143 252.289C359.953 250.349 369.923 250.479 379.793 252.649C379.213 255.069 378.973 257.759 379.563 260.779C380.063 263.309 381.013 265.439 382.253 267.289C363.163 258.749 335.863 269.409 319.453 292.059C318.073 293.969 318.493 296.639 320.403 298.029C321.163 298.579 322.033 298.839 322.903 298.839C324.223 298.839 325.533 298.229 326.363 297.069C327.603 295.369 328.953 293.699 330.403 292.089V292.999C330.403 295.159 332.153 296.919 334.323 296.919C336.493 296.919 338.243 295.169 338.243 292.999V284.779C338.243 284.779 338.243 284.739 338.243 284.719C345.663 278.789 354.333 274.479 362.773 273.199C353.863 276.069 347.403 284.539 347.403 294.549C347.403 304.559 353.333 312.319 361.673 315.509C350.633 315.329 341.903 310.939 338.163 308.699C336.133 307.489 333.513 308.149 332.303 310.169C331.093 312.199 331.753 314.819 333.773 316.029C338.273 318.719 348.903 324.059 362.413 324.059C365.533 324.059 368.813 323.769 372.203 323.109C378.183 321.929 383.823 319.699 389.013 316.489C387.743 319.809 387.303 323.329 388.283 327.069C390.443 335.289 398.763 337.569 405.453 339.409C408.203 340.159 413.323 341.569 413.663 342.839C414.293 345.189 407.393 351.349 403.683 354.659C396.183 361.359 387.673 368.949 389.753 378.159C391.583 386.259 400.393 389.289 407.483 391.719C410.113 392.619 414.893 394.269 415.993 395.489C415.143 397.569 408.613 401.629 405.053 403.849C396.323 409.279 387.293 414.889 388.123 423.669C388.903 431.879 397.723 435.709 405.503 439.079C407.383 439.899 410.133 441.089 411.973 442.129C409.763 443.069 406.303 444.089 403.753 444.829C394.193 447.629 383.363 450.809 381.283 459.769C379.393 467.909 386.103 474.009 393.623 480.319C387.293 488.489 380.013 495.829 371.873 502.219C365.343 507.339 358.343 511.779 350.943 515.509C323.543 525.419 297.093 529.979 272.313 529.059C252.523 528.319 233.733 524.099 216.473 516.519C187.093 503.609 172.013 485.149 171.763 484.829C171.303 484.249 170.743 483.799 170.133 483.459C169.753 482.519 169.373 481.589 169.013 480.639C162.703 464.309 158.693 447.419 156.993 430.189C157.203 430.459 157.413 430.729 157.633 430.989C158.343 431.859 159.813 432.299 160.563 431.439C163.943 427.579 156.963 414.399 156.073 409.019C156.903 392.639 169.173 389.159 172.363 386.699V386.659ZM266.493 417.669C270.223 415.659 274.713 415.559 278.583 417.269C274.103 428.029 267.963 433.959 264.393 433.769C262.913 433.689 261.133 432.559 259.333 430.509C259.093 425.219 261.883 420.149 266.493 417.669ZM401.233 290.729C399.893 286.309 397.623 281.019 393.883 276.329C394.913 276.839 395.933 277.329 396.923 277.799C402.953 280.659 406.683 282.639 407.573 285.959C408.783 290.469 404.023 296.019 398.983 301.889C396.993 304.199 394.923 306.619 393.113 309.139C393.023 308.969 392.933 308.809 392.823 308.649C391.613 306.939 389.383 306.399 387.553 307.249C388.343 306.089 389.043 304.859 389.603 303.549C388.413 303.779 387.173 303.889 385.883 303.889C377.683 303.889 371.043 298.999 371.043 292.979C371.043 286.959 377.693 282.069 385.883 282.069C386.463 282.069 387.033 282.099 387.593 282.149C390.323 285.729 392.023 289.789 393.063 293.209C393.743 295.469 396.133 296.739 398.393 296.049C400.653 295.359 401.923 292.979 401.233 290.719V290.729ZM369.293 243.209C362.393 242.759 355.483 243.209 348.633 244.559C346.473 244.989 344.313 245.509 342.203 246.109C339.903 246.769 337.563 246.229 335.783 244.639C334.003 243.049 333.213 240.789 333.603 238.449L333.653 238.159C334.213 234.829 337.033 232.459 340.333 232.459C340.503 232.459 340.673 232.459 340.843 232.479C345.473 232.819 350.033 233.759 354.393 235.259C360.363 237.319 365.303 240.189 369.293 243.209ZM261.853 818.409C261.003 799.339 259.483 780.359 257.303 761.889C255.443 746.129 253.443 733.379 251.683 722.139C248.503 701.889 245.993 685.899 245.843 662.999C245.763 651.799 246.273 640.479 247.343 629.359C248.253 619.909 246.613 610.479 242.603 602.089C238.163 592.799 232.393 584.309 225.473 576.839C222.533 573.669 219.403 570.709 216.093 567.949C220.583 570.359 225.843 572.849 231.833 575.109C232.123 575.219 232.423 575.269 232.713 575.269C233.723 575.269 234.663 574.659 235.043 573.659C235.533 572.369 234.883 570.929 233.593 570.449C220.303 565.429 210.563 559.129 205.503 555.459C207.923 548.899 206.623 541.419 201.943 535.919C194.853 527.569 188.523 518.699 182.983 509.349C190.403 514.839 199.933 520.799 211.633 525.989C230.163 534.219 250.313 538.809 271.513 539.649C273.873 539.739 276.243 539.789 278.623 539.789C292.473 539.789 306.763 538.209 321.383 535.079C320.643 538.019 320.663 541.179 321.603 544.269C323.463 550.349 325.243 558.409 325.673 567.809C319.803 570.289 313.873 572.359 307.993 573.949C306.663 574.309 305.883 575.679 306.243 577.009C306.543 578.119 307.553 578.849 308.643 578.849C308.863 578.849 309.073 578.819 309.293 578.759C314.773 577.279 320.293 575.399 325.763 573.169C325.693 578.769 325.113 584.759 323.783 591.019C319.863 609.439 310.993 622.989 304.253 631.119C298.893 637.569 295.453 645.319 294.303 653.519C290.063 683.659 290.433 714.089 295.393 743.979C299.653 769.659 307.283 794.639 318.063 818.389H261.883L261.853 818.409ZM456.083 534.669C457.413 534.669 458.763 534.179 459.903 533.229C460.903 532.399 462.203 530.559 463.543 528.109L528.783 591.409C528.903 591.529 529.033 591.639 529.163 591.739C535.273 596.639 539.293 602.089 541.113 607.939C542.323 611.829 542.313 615.039 542.303 619.899C542.303 623.799 542.283 628.649 542.923 635.289C543.463 640.969 544.353 646.649 545.563 652.169C545.903 653.749 546.943 655.079 548.383 655.799C556.813 660.029 561.483 664.119 562.243 667.979C562.923 671.419 560.883 675.719 558.523 680.709C554.473 689.269 548.923 700.989 555.503 715.549C562.393 732.839 558.413 738.269 554.203 744.019C549.853 749.969 544.433 757.359 552.553 773.129C560.573 791.099 555.663 809.419 550.013 818.409H329.793C318.303 794.199 310.263 768.599 305.883 742.249C301.103 713.439 300.743 684.089 304.833 655.029C305.713 648.789 308.333 642.889 312.423 637.959C319.933 628.909 329.813 613.809 334.183 593.259C338.773 571.679 335.413 553.009 331.783 541.149C330.753 537.769 332.623 534.149 335.973 533.079C351.473 528.089 365.763 520.519 378.453 510.569C387.153 503.749 394.933 495.939 401.723 487.249C407.543 492.649 412.603 498.809 413.503 506.479C413.963 510.379 410.293 517.279 408.113 521.389C405.533 526.239 403.503 530.069 406.533 533.399C407.013 533.929 408.473 535.269 410.833 535.269C411.693 535.269 412.663 535.089 413.753 534.639C420.223 531.959 425.433 527.799 429.343 522.309L431.203 530.499C431.623 532.339 432.973 533.819 434.773 534.399C435.313 534.569 435.863 534.659 436.413 534.659C437.693 534.659 438.963 534.199 439.953 533.319C444.633 529.179 447.623 523.469 449.533 517.849C450.623 521.009 450.993 523.859 450.593 526.339C450.373 527.709 449.713 531.879 453.323 533.929C454.193 534.419 455.133 534.669 456.073 534.669H456.083ZM416.793 206.409C265.033 215.039 246.763 182.549 128.703 199.299C81.6233 206.979 50.4032 215.839 31.3332 225.079C34.2632 222.189 37.6533 219.389 41.5033 216.679C65.4633 199.829 105.843 187.329 155.223 181.459C198.003 176.379 242.003 177.429 267.313 184.129C270.373 184.939 273.523 182.919 273.973 179.679C274.343 176.979 272.513 174.459 269.883 173.759C242.943 166.669 198.553 165.549 153.963 170.849C153.913 170.849 153.853 170.859 153.803 170.869C145.573 171.849 138.723 164.709 140.013 156.529C142.083 143.359 146.383 127.619 154.513 121.409C158.873 118.069 162.023 113.199 163.373 107.679C165.773 97.9088 168.843 88.2088 172.513 78.8288C183.193 51.5488 190.913 31.8388 208.893 21.1888C219.243 15.0488 228.943 14.5488 244.993 13.7088L245.453 13.6888C263.523 12.7488 281.583 14.9288 299.293 20.1488C298.833 20.3188 298.363 20.4888 297.893 20.6388C286.173 24.4688 275.943 21.7888 270.793 19.7888C268.103 18.7488 264.963 19.8988 263.793 22.5388C262.563 25.3288 263.913 28.5588 266.723 29.6688C273.153 32.1988 286.183 35.6988 301.203 30.7888C306.303 29.1188 311.093 26.6388 315.453 23.4188C325.173 16.2188 336.303 11.9988 347.633 11.2288C361.483 10.2788 373.553 12.8488 383.523 18.8488C401.503 29.6688 409.233 49.6888 419.923 77.3888C423.603 86.9088 426.673 96.7688 429.073 106.689C430.423 112.269 433.553 117.199 437.903 120.569C445.983 126.839 450.283 142.699 452.383 156.039C453.443 162.799 448.893 169.109 442.153 170.279C433.643 171.749 425.523 173.609 418.103 175.709C415.283 176.509 413.433 179.369 414.153 182.219C414.893 185.149 417.903 186.869 420.783 186.049C441.693 180.129 464.393 177.069 484.743 177.459C508.143 177.899 527.663 182.869 541.213 191.829C547.353 195.889 552.293 200.799 556.053 206.509C533.773 197.429 489.873 195.199 416.793 206.429V206.409Z" fill="#091B35"/>
<path d="M318.663 672.389C313.093 672.389 308.723 678.539 308.723 686.389C308.723 694.239 313.083 700.389 318.663 700.389C324.243 700.389 328.603 694.239 328.603 686.389C328.603 678.539 324.243 672.389 318.663 672.389ZM319.343 695.289C320.683 693.969 321.563 691.659 321.563 689.019C321.563 684.909 319.403 681.569 316.743 681.569C315.783 681.569 314.893 682.009 314.143 682.749C314.983 679.459 316.893 677.369 318.653 677.369C320.993 677.369 323.603 681.069 323.603 686.379C323.603 691.179 321.473 694.649 319.333 695.279L319.343 695.289Z" fill="#091B35"/>
<path d="M365.743 595.079C363.103 595.719 360.163 597.229 357.463 599.309C354.763 601.389 352.553 603.849 351.263 606.239C349.063 610.299 350.153 612.759 351.003 613.859C351.663 614.709 353.053 615.909 355.723 615.909C356.513 615.909 357.413 615.809 358.433 615.549C361.073 614.899 364.013 613.399 366.713 611.319C369.413 609.239 371.623 606.779 372.913 604.389C375.113 600.329 374.023 597.869 373.173 596.769C372.323 595.669 370.223 593.979 365.743 595.069V595.079ZM363.673 607.379C361.083 609.379 358.793 610.349 357.193 610.729C358.453 610.299 359.863 609.549 361.213 608.499C364.473 605.989 366.213 602.779 365.103 601.339C364.933 601.109 364.683 600.949 364.403 600.829C366.913 599.649 368.733 599.539 369.213 599.819C369.423 600.609 368.113 603.949 363.673 607.379Z" fill="#091B35"/>
<path d="M333.313 769.839C328.013 771.549 325.743 778.739 328.153 786.209C330.213 792.609 334.953 796.839 339.603 796.839C340.373 796.839 341.153 796.719 341.903 796.479C344.593 795.609 346.633 793.229 347.523 789.929C348.313 786.969 348.153 783.479 347.063 780.109C344.653 772.639 338.613 768.129 333.313 769.839ZM342.713 788.639C342.493 789.449 341.993 790.759 340.993 791.429C341.863 789.759 342.003 787.289 341.193 784.769C339.933 780.849 336.853 778.339 334.323 779.159C333.413 779.449 332.703 780.139 332.213 781.079C332.003 777.689 333.183 775.119 334.853 774.579C335.093 774.499 335.343 774.469 335.603 774.469C337.823 774.469 340.873 777.119 342.333 781.639C343.123 784.079 343.263 786.629 342.723 788.639H342.713Z" fill="#091B35"/>
<path d="M300.853 578.239C300.603 576.889 299.303 575.989 297.953 576.239C282.863 579.039 267.663 578.949 252.773 575.959C251.423 575.689 250.113 576.559 249.843 577.909C249.573 579.259 250.443 580.569 251.793 580.839C259.803 582.449 267.903 583.249 276.023 583.249C283.633 583.249 291.263 582.539 298.873 581.129C300.223 580.879 301.123 579.579 300.873 578.229L300.853 578.239Z" fill="#091B35"/>
<path d="M346.273 183.389C332.073 186.029 307.693 182.119 294.423 179.559C291.533 178.999 288.723 180.889 288.163 183.789C287.603 186.689 289.493 189.489 292.393 190.049C305.003 192.489 321.133 194.949 334.793 194.949C339.673 194.949 344.243 194.639 348.223 193.899C351.123 193.359 353.033 190.569 352.493 187.669C351.953 184.769 349.173 182.859 346.263 183.399L346.273 183.389Z" fill="#091B35"/>
<path d="M384.423 179.489L368.403 181.179C365.473 181.489 363.343 184.119 363.653 187.049C363.943 189.789 366.263 191.829 368.953 191.829C369.143 191.829 369.333 191.829 369.523 191.799L385.543 190.109C388.473 189.799 390.603 187.169 390.293 184.239C389.983 181.309 387.363 179.179 384.423 179.489Z" fill="#091B35"/>
<path d="M237.093 498.889C238.733 498.529 239.963 497.169 240.153 495.499C240.443 492.879 241.673 486.289 246.693 481.799C248.403 480.269 250.183 479.319 251.853 478.729C251.573 480.599 251.533 482.749 251.973 485.129C252.883 490.119 255.433 493.519 256.873 495.099C257.813 496.129 259.223 496.589 260.593 496.289C261.953 495.999 263.063 494.999 263.493 493.679C264.053 491.949 265.443 488.719 268.393 486.499C269.173 485.909 269.963 485.469 270.723 485.149C271.053 487.689 271.883 490.719 273.733 493.669C277.123 499.059 282.653 502.209 288.513 502.209C289.163 502.209 289.813 502.169 290.473 502.089C291.633 501.949 292.663 501.309 293.293 500.329C293.923 499.349 294.093 498.139 293.743 497.029C292.903 494.369 292.023 490.169 292.543 485.309C293.033 480.709 294.593 477.359 295.813 475.359C296.943 473.519 296.363 471.099 294.513 469.979C292.673 468.849 290.253 469.429 289.133 471.279C286.773 475.129 285.263 479.699 284.753 484.489C284.393 487.839 284.563 490.929 284.953 493.599C283.163 492.789 281.553 491.389 280.373 489.509C278.103 485.909 278.323 481.899 278.433 480.759C278.553 479.629 278.173 478.499 277.393 477.669C276.613 476.839 275.513 476.389 274.383 476.439C271.683 476.549 267.633 477.299 263.693 480.249C262.113 481.439 260.813 482.769 259.763 484.149C259.733 484.009 259.703 483.879 259.683 483.729C258.943 479.689 260.473 476.779 260.963 475.979C261.693 474.789 261.733 473.299 261.063 472.079C260.403 470.849 259.133 470.069 257.743 470.029C254.273 469.919 247.543 470.549 241.483 475.969C239.243 477.969 237.553 480.229 236.263 482.499C236.113 480.799 236.153 478.979 236.473 477.089C237.513 471.019 240.913 467.749 242.323 466.619C244.013 465.269 244.293 462.809 242.943 461.119C241.593 459.429 239.133 459.149 237.443 460.499C235.333 462.189 230.253 467.049 228.763 475.769C226.983 486.159 231.503 494.719 232.923 497.089C233.783 498.529 235.473 499.259 237.113 498.899L237.093 498.889Z" fill="#091B35"/>
<path d="M304.593 328.229C304.133 326.899 303.433 325.669 302.523 324.599C291.123 308.269 260.283 310.589 248.283 320.699C247.063 321.579 246.023 322.709 245.253 323.999C243.463 326.959 243.023 330.759 244.673 334.319C245.033 335.089 245.423 335.829 245.833 336.549C247.423 338.329 249.803 339.349 252.013 338.789C255.073 337.929 255.493 334.559 255.403 331.799C255.503 325.039 265.203 324.819 265.603 331.569C265.053 337.959 260.523 344.839 253.773 345.419C257.563 348.199 262.063 350.099 267.013 351.109L267.253 343.939C267.323 341.819 269.063 340.159 271.163 340.159C271.203 340.159 271.253 340.159 271.303 340.159C273.463 340.229 275.153 342.049 275.083 344.209L274.823 351.949C281.093 352.049 287.003 350.809 292.073 348.209C291.683 348.189 291.303 348.159 290.913 348.109C282.823 347.089 278.873 339.719 279.753 332.089C279.963 329.279 282.413 327.169 285.223 327.379C288.033 327.589 290.143 330.039 289.933 332.849C289.383 335.609 288.253 338.209 290.313 340.279C293.533 343.319 299.513 342.609 302.473 339.239C302.883 338.659 303.273 338.069 303.633 337.459C305.423 334.479 305.593 331.139 304.593 328.239V328.229Z" fill="#091B35"/>
</svg>
